<svg xmlns="http://www.w3.org/2000/svg" xmlns:xlink="http://www.w3.org/1999/xlink" viewBox="0 0 80 80">
  <defs>
    <linearGradient id="b" x1="40" x2="40" y1="82" y2="2" data-name="New Gradient Swatch" gradientTransform="matrix(1 0 0 -1 0 82)" gradientUnits="userSpaceOnUse">
      <stop offset="0" stop-color="#05050f" stop-opacity="0"/>
      <stop offset="1" stop-color="#8d8db9" stop-opacity=".2"/>
    </linearGradient>
    <linearGradient id="c" x1="40" x2="40" y1="82" y2="2" gradientTransform="matrix(1 0 0 -1 0 82)" gradientUnits="userSpaceOnUse">
      <stop offset="0" stop-color="#8d8db9"/>
      <stop offset="1" stop-color="#27273f"/>
    </linearGradient>
    <linearGradient id="a" x1="21.6" x2="58.4" y1="46.7" y2="46.7" data-name="New Gradient Swatch copy" gradientTransform="matrix(1 0 0 -1 0 82)" gradientUnits="userSpaceOnUse">
      <stop offset="0" stop-color="#5d79a0"/>
      <stop offset="1" stop-color="#c3cddc"/>
    </linearGradient>
    <linearGradient xlink:href="#a" id="d" x1="11.8" x2="37.3" y1="40" y2="40" data-name="New Gradient Swatch copy"/>
    <linearGradient xlink:href="#a" id="e" x1="57.5" x2="67.9" y1="40" y2="40" data-name="New Gradient Swatch copy"/>
    <linearGradient xlink:href="#a" id="f" x1="65.2" x2="68.2" y1="40" y2="40" data-name="New Gradient Swatch copy"/>
    <linearGradient xlink:href="#a" id="g" x1="44" x2="45.2" y1="48.9" y2="48.9" data-name="New Gradient Swatch copy"/>
    <linearGradient xlink:href="#a" id="h" x1="44" x2="45.2" y1="31.1" y2="31.1" data-name="New Gradient Swatch copy"/>
    <linearGradient xlink:href="#a" id="i" x1="49.2" x2="50.4" y1="48.9" y2="48.9" data-name="New Gradient Swatch copy"/>
    <linearGradient xlink:href="#a" id="j" x1="49.2" x2="50.4" y1="31.1" y2="31.1" data-name="New Gradient Swatch copy"/>
    <linearGradient xlink:href="#a" id="k" x1="54.3" x2="55.5" y1="48.9" y2="48.9" data-name="New Gradient Swatch copy"/>
    <linearGradient xlink:href="#a" id="l" x1="54.3" x2="55.5" y1="31.1" y2="31.1" data-name="New Gradient Swatch copy"/>
    <linearGradient xlink:href="#a" id="m" x1="40.8" x2="58.7" y1="40" y2="40" data-name="New Gradient Swatch copy"/>
    <linearGradient xlink:href="#a" id="n" x1="11.8" x2="22.1" y1="25.6" y2="25.6" data-name="New Gradient Swatch copy"/>
    <linearGradient xlink:href="#a" id="o" x1="25.6" x2="30.7" y1="40" y2="40" data-name="New Gradient Swatch copy"/>
    <linearGradient xlink:href="#a" id="p" x1="21.5" x2="26.8" y1="31.5" y2="31.5" data-name="New Gradient Swatch copy"/>
    <linearGradient xlink:href="#a" id="q" x1="25.6" x2="42" y1="40" y2="40" data-name="New Gradient Swatch copy"/>
    <linearGradient xlink:href="#a" id="r" x1="21.5" x2="26.8" y1="40" y2="40" data-name="New Gradient Swatch copy"/>
    <linearGradient xlink:href="#a" id="s" x1="21.5" x2="26.8" y1="48.5" y2="48.5" data-name="New Gradient Swatch copy"/>
    <linearGradient xlink:href="#a" id="t" x1="45.3" x2="50.7" y1="40" y2="40" data-name="New Gradient Swatch copy"/>
    <linearGradient xlink:href="#a" id="u" x1="45.3" x2="50.7" y1="40.4" y2="40.4" data-name="New Gradient Swatch copy"/>
    <linearGradient xlink:href="#a" id="v" x1="53" x2="54.2" y1="40" y2="40" data-name="New Gradient Swatch copy"/>
  </defs>
  <path d="M40 .5C61.8.5 79.5 18.2 79.5 40S61.8 79.5 40 79.5.5 61.8.5 40 18.2.5 40 .5Z" style="fill:url(#b)"/>
  <path d="M40 .5C61.8.5 79.5 18.2 79.5 40S61.8 79.5 40 79.5.5 61.8.5 40 18.2.5 40 .5Z" style="stroke:url(#c);fill:none"/>
  <path d="M12.4 35.6v-6.2c0-.3.1-.6.3-.8l7.3-7.3c.2-.2.5-.3.8-.3h14.8c.6 0 1.1.5 1.1 1.1v35.8c0 .6-.5 1.1-1.1 1.1H13.5c-.6 0-1.1-.5-1.1-1.1V39.5" style="stroke:url(#d);fill:none;stroke-linecap:round;stroke-linejoin:round;stroke-width:1.2px"/>
  <path d="M67.3 40h-9.2" style="stroke:url(#e);fill:none;stroke-linecap:round;stroke-linejoin:round;stroke-width:1.2px"/>
  <path d="m65.8 37.7 1.8 2.3-1.8 2.3" style="stroke:url(#f);fill:none;stroke-linecap:round;stroke-linejoin:round;stroke-width:1.2px"/>
  <path d="M44.6 50.4v-3" style="stroke:url(#g);fill:none;stroke-linecap:round;stroke-linejoin:round;stroke-width:1.2px"/>
  <path d="M44.6 32.6v-3" style="stroke:url(#h);fill:none;stroke-linecap:round;stroke-linejoin:round;stroke-width:1.2px"/>
  <path d="M49.8 50.4v-3" style="stroke:url(#i);fill:none;stroke-linecap:round;stroke-linejoin:round;stroke-width:1.2px"/>
  <path d="M49.8 32.6v-3" style="stroke:url(#j);fill:none;stroke-linecap:round;stroke-linejoin:round;stroke-width:1.2px"/>
  <path d="M54.9 50.4v-3" style="stroke:url(#k);fill:none;stroke-linecap:round;stroke-linejoin:round;stroke-width:1.2px"/>
  <path d="M54.9 32.6v-3" style="stroke:url(#l);fill:none;stroke-linecap:round;stroke-linejoin:round;stroke-width:1.2px"/>
  <path d="M58.1 41.9v-8.2c0-.6-.5-1.1-1.1-1.1H42.5c-.6 0-1.1.5-1.1 1.1v12.6c0 .6.5 1.1 1.1 1.1H57c.6 0 1.1-.5 1.1-1.1v-.5" style="stroke:url(#m);fill:none;stroke-linecap:round;stroke-linejoin:round;stroke-width:1.2px"/>
  <path d="M12.4 30.1c0-.6.5-1.2 1.2-1.2h6.2c.3 0 .6-.3.6-.6v-6.2c0-.6.5-1.2 1.2-1.2" style="stroke:url(#n);fill:none;stroke-linecap:round;stroke-linejoin:round;stroke-width:1.2px"/>
  <path d="M26.2 31.5h3.9v17h-3.9" style="stroke:url(#o);fill:none;stroke-linecap:round;stroke-linejoin:round;stroke-width:1.2px"/>
  <path d="M24.1 29.5c-1.1 0-2 .9-2 2s.9 2 2 2 2-.9 2-2-.9-2-2-2Z" style="stroke:url(#p);fill:none;stroke-linecap:round;stroke-linejoin:round;stroke-width:1.2px"/>
  <path d="M41.4 40H26.2" style="stroke:url(#q);fill:none;stroke-linecap:round;stroke-linejoin:round;stroke-width:1.2px"/>
  <path d="M24.1 38c-1.1 0-2 .9-2 2s.9 2 2 2 2-.9 2-2-.9-2-2-2Z" style="stroke:url(#r);fill:none;stroke-linecap:round;stroke-linejoin:round;stroke-width:1.2px"/>
  <path d="M24.1 46.5c-1.1 0-2 .9-2 2s.9 2 2 2 2-.9 2-2-.9-2-2-2Z" style="stroke:url(#s);fill:none;stroke-linecap:round;stroke-linejoin:round;stroke-width:1.2px"/>
  <path d="M45.9 43.4v-6.3c0-.3.2-.6.6-.6h3.1c.3 0 .6.2.6.6v6.3" style="stroke:url(#t);fill:none;stroke-linecap:round;stroke-linejoin:round;stroke-width:1.2px"/>
  <path d="M45.9 40.4h4.2" style="stroke:url(#u);fill:none;stroke-linecap:round;stroke-linejoin:round;stroke-width:1.2px"/>
  <path d="M53.6 43.4v-6.8" style="stroke:url(#v);fill:none;stroke-linecap:round;stroke-linejoin:round;stroke-width:1.2px"/>
</svg>
