<svg xmlns="http://www.w3.org/2000/svg" xmlns:xlink="http://www.w3.org/1999/xlink" viewBox="0 0 80 80">
  <defs>
    <linearGradient id="b" x1="40" x2="40" y1="82" y2="2" data-name="New Gradient Swatch" gradientTransform="matrix(1 0 0 -1 0 82)" gradientUnits="userSpaceOnUse">
      <stop offset="0" stop-color="#05050f" stop-opacity="0"/>
      <stop offset="1" stop-color="#8d8db9" stop-opacity=".2"/>
    </linearGradient>
    <linearGradient id="c" x1="40" x2="40" y1="82" y2="2" gradientTransform="matrix(1 0 0 -1 0 82)" gradientUnits="userSpaceOnUse">
      <stop offset="0" stop-color="#8d8db9"/>
      <stop offset="1" stop-color="#27273f"/>
    </linearGradient>
    <linearGradient id="a" x1="21.6" x2="58.4" y1="46.7" y2="46.7" data-name="New Gradient Swatch copy" gradientTransform="matrix(1 0 0 -1 0 82)" gradientUnits="userSpaceOnUse">
      <stop offset="0" stop-color="#5d79a0"/>
      <stop offset="1" stop-color="#c3cddc"/>
    </linearGradient>
    <linearGradient xlink:href="#a" id="d" x1="49.9" x2="58.4" y1="33.9" y2="33.9" data-name="New Gradient Swatch copy"/>
    <linearGradient xlink:href="#a" id="e" x1="44.5" x2="48.5" y1="29.6" y2="29.6" data-name="New Gradient Swatch copy"/>
    <linearGradient xlink:href="#a" id="f" x1="20.8" x2="35.5" y1="34.1" y2="34.1" data-name="New Gradient Swatch copy"/>
    <linearGradient xlink:href="#a" id="g" x1="20.8" x2="26.4" y1="48.7" y2="48.7" data-name="New Gradient Swatch copy"/>
    <linearGradient xlink:href="#a" id="h" x1="39.2" x2="58.4" y1="48.9" y2="48.9" data-name="New Gradient Swatch copy"/>
    <linearGradient xlink:href="#a" id="i" x1="44.5" x2="58.3" y1="35.9" y2="35.9" data-name="New Gradient Swatch copy"/>
    <linearGradient xlink:href="#a" id="j" x1="20.9" x2="35.5" y1="36" y2="36" data-name="New Gradient Swatch copy"/>
    <linearGradient xlink:href="#a" id="k" x1="19.7" x2="24.7" y1="42.2" y2="42.2" data-name="New Gradient Swatch copy"/>
    <linearGradient xlink:href="#a" id="l" x1="55.3" x2="60.3" y1="42.2" y2="42.2" data-name="New Gradient Swatch copy"/>
    <linearGradient xlink:href="#a" id="m" x1="34.3" x2="45.7" y1="32.5" y2="32.5" data-name="New Gradient Swatch copy"/>
    <linearGradient xlink:href="#a" id="n" x1="37.2" x2="42.8" y1="33.5" y2="33.5" data-name="New Gradient Swatch copy"/>
    <linearGradient xlink:href="#a" id="o" x1="25.2" x2="40.4" y1="52" y2="52" data-name="New Gradient Swatch copy"/>
    <linearGradient xlink:href="#a" id="p" x1="28.6" x2="32.8" y1="52.1" y2="52.1" data-name="New Gradient Swatch copy"/>
    <linearGradient xlink:href="#a" id="q" x1="33.5" x2="34.7" y1="52.1" y2="52.1" data-name="New Gradient Swatch copy"/>
    <linearGradient xlink:href="#a" id="r" x1="33.5" x2="36.9" y1="51.1" y2="51.1" data-name="New Gradient Swatch copy"/>
    <linearGradient xlink:href="#a" id="s" x1="48.6" x2="49.8" y1="26.6" y2="26.6" data-name="New Gradient Swatch copy"/>
    <linearGradient xlink:href="#a" id="t" x1="46.4" x2="51.9" y1="24.3" y2="24.3" data-name="New Gradient Swatch copy"/>
    <linearGradient xlink:href="#a" id="u" x1="44.5" x2="53.8" y1="21.8" y2="21.8" data-name="New Gradient Swatch copy"/>
  </defs>
  <path d="M40 .5C61.8.5 79.5 18.2 79.5 40S61.8 79.5 40 79.5.5 61.8.5 40 18.2.5 40 .5Z" style="fill:url(#b)"/>
  <path d="M40 .5C61.8.5 79.5 18.2 79.5 40S61.8 79.5 40 79.5.5 61.8.5 40 18.2.5 40 .5Z" style="stroke:url(#c);fill:none"/>
  <path d="M50.5 29.6h.6c3.7 0 6.6 3 6.6 6.7v2" style="stroke:url(#d);fill:none;stroke-linecap:round;stroke-linejoin:round;stroke-width:1.2px"/>
  <path d="M45.1 29.6h2.8" style="stroke:url(#e);fill:none;stroke-linecap:round;stroke-linejoin:round;stroke-width:1.2px"/>
  <path d="M21.4 38.5v-2.3c0-3.7 3-6.7 6.6-6.7h6.8" style="stroke:url(#f);fill:none;stroke-linecap:round;stroke-linejoin:round;stroke-width:1.2px"/>
  <path d="M25.8 51.4c-2.5-.6-4.3-2.8-4.3-5.5" style="stroke:url(#g);fill:none;stroke-linecap:round;stroke-linejoin:round;stroke-width:1.2px"/>
  <path d="M57.8 46.1c-.1 3-2.6 5.4-5.6 5.4H39.8" style="stroke:url(#h);fill:none;stroke-linecap:round;stroke-linejoin:round;stroke-width:1.2px"/>
  <path d="M45.1 33.5h7c2.8 0 5.1 2 5.5 4.6" style="stroke:url(#i);fill:none;stroke-linecap:round;stroke-linejoin:round;stroke-width:1.2px"/>
  <path d="M21.5 38.5c.3-2.8 2.7-5 5.6-5h7.8" style="stroke:url(#j);fill:none;stroke-linecap:round;stroke-linejoin:round;stroke-width:1.2px"/>
  <path d="M22.8 38.2h0c.7 0 1.3.6 1.3 1.3v5.3c0 .7-.6 1.3-1.3 1.3h0c-1.4 0-2.5-1.1-2.5-2.5v-3c0-1.4 1.1-2.5 2.5-2.5Z" style="stroke:url(#k);fill:none;stroke-linecap:round;stroke-linejoin:round;stroke-width:1.2px"/>
  <path d="M57.2 46.1h0c-.7 0-1.3-.6-1.3-1.3v-5.3c0-.7.6-1.3 1.3-1.3h0c1.4 0 2.5 1.1 2.5 2.5v3c0 1.4-1.1 2.5-2.5 2.5Z" style="stroke:url(#l);fill:none;stroke-linecap:round;stroke-linejoin:round;stroke-width:1.2px"/>
  <path d="M43.9 28.5h-7.8c-.7 0-1.2.5-1.2 1.2v3.8l1.3 2.4c.2.4.6.6 1.1.6h5.6c.5 0 .9-.2 1.1-.6l1.3-2.4v-3.8c0-.7-.5-1.2-1.2-1.2Z" style="stroke:url(#m);fill:none;stroke-linecap:round;stroke-linejoin:round;stroke-width:1.2px"/>
  <path d="M37.8 33.5h4.4" style="stroke:url(#n);fill:none;stroke-linecap:round;stroke-linejoin:round;stroke-width:1.2px"/>
  <path d="M28.7 57.7c1.1.8 2.6 1.3 4.1 1.3 3.9 0 7-3.2 7-7s-3.1-7-7-7-7 3.2-7 7 .5 2.9 1.3 4" style="stroke:url(#o);fill:none;stroke-linecap:round;stroke-linejoin:round;stroke-width:1.2px"/>
  <path d="m29.2 50 1.4 4.1h.2l1.4-4.1" style="stroke:url(#p);fill:none;stroke-linecap:round;stroke-linejoin:round;stroke-width:1.2px"/>
  <path d="M34.1 50v4.2" style="stroke:url(#q);fill:none;stroke-linecap:round;stroke-linejoin:round;stroke-width:1.2px"/>
  <path d="M34.1 50h1.1c.6 0 1.1.5 1.1 1.1s-.5 1.1-1.1 1.1h-1.1" style="stroke:url(#r);fill:none;stroke-linecap:round;stroke-linejoin:round;stroke-width:1.2px"/>
  <path d="M49.2 26.6h0" style="stroke:url(#s);fill:none;stroke-linecap:round;stroke-linejoin:round;stroke-width:1.2px"/>
  <path d="M51.3 24.7c-1.2-1.2-3.1-1.2-4.3 0" style="stroke:url(#t);fill:none;stroke-linecap:round;stroke-linejoin:round;stroke-width:1.2px"/>
  <path d="M53.2 22.7c-2.2-2.2-5.8-2.2-8 0" style="stroke:url(#u);fill:none;stroke-linecap:round;stroke-linejoin:round;stroke-width:1.2px"/>
</svg>
