<svg xmlns="http://www.w3.org/2000/svg" xmlns:xlink="http://www.w3.org/1999/xlink" viewBox="0 0 80 80">
  <defs>
    <linearGradient id="b" x1="40" x2="40" y1="82" y2="2" data-name="New Gradient Swatch" gradientTransform="matrix(1 0 0 -1 0 82)" gradientUnits="userSpaceOnUse">
      <stop offset="0" stop-color="#05050f" stop-opacity="0"/>
      <stop offset="1" stop-color="#8d8db9" stop-opacity=".2"/>
    </linearGradient>
    <linearGradient id="c" x1="40" x2="40" y1="82" y2="2" gradientTransform="matrix(1 0 0 -1 0 82)" gradientUnits="userSpaceOnUse">
      <stop offset="0" stop-color="#8d8db9"/>
      <stop offset="1" stop-color="#27273f"/>
    </linearGradient>
    <linearGradient id="a" x1="21.6" x2="58.4" y1="46.7" y2="46.7" data-name="New Gradient Swatch copy" gradientTransform="matrix(1 0 0 -1 0 82)" gradientUnits="userSpaceOnUse">
      <stop offset="0" stop-color="#5d79a0"/>
      <stop offset="1" stop-color="#c3cddc"/>
    </linearGradient>
    <linearGradient xlink:href="#a" id="d" x1="33.1" x2="41.6" y1="49.3" y2="49.3" data-name="New Gradient Swatch copy"/>
    <linearGradient xlink:href="#a" id="e" x1="20.4" x2="59.6" y1="33.8" y2="33.8" data-name="New Gradient Swatch copy"/>
    <linearGradient xlink:href="#a" id="f" x1="33" x2="47" y1="46.1" y2="46.1" data-name="New Gradient Swatch copy"/>
    <linearGradient xlink:href="#a" id="g" x1="33" x2="47" y1="49.3" y2="49.3" data-name="New Gradient Swatch copy"/>
    <linearGradient xlink:href="#a" id="h" x1="33" x2="47" y1="52.6" y2="52.6" data-name="New Gradient Swatch copy"/>
    <linearGradient xlink:href="#a" id="i" x1="51.4" x2="54.4" y1="52.6" y2="52.6" data-name="New Gradient Swatch copy"/>
    <linearGradient xlink:href="#a" id="j" x1="57.5" x2="60.5" y1="52.6" y2="52.6" data-name="New Gradient Swatch copy"/>
    <linearGradient xlink:href="#a" id="k" x1="19.5" x2="22.5" y1="52.6" y2="52.6" data-name="New Gradient Swatch copy"/>
    <linearGradient xlink:href="#a" id="l" x1="25.6" x2="28.6" y1="52.6" y2="52.6" data-name="New Gradient Swatch copy"/>
    <linearGradient xlink:href="#a" id="m" x1="38.5" x2="41.5" y1="33.9" y2="33.9" data-name="New Gradient Swatch copy"/>
    <linearGradient xlink:href="#a" id="n" x1="38.5" x2="41.5" y1="27.4" y2="27.4" data-name="New Gradient Swatch copy"/>
  </defs>
  <path d="M40 .5C61.8.5 79.5 18.2 79.5 40S61.8 79.5 40 79.5.5 61.8.5 40 18.2.5 40 .5Z" style="fill:url(#b)"/>
  <path d="M40 .5C61.8.5 79.5 18.2 79.5 40S61.8 79.5 40 79.5.5 61.8.5 40 18.2.5 40 .5Z" style="stroke:url(#c);fill:none"/>
  <path d="M38.4 55.8V42.9c0-1.8 1.4-3.2 3.2-3.2h-4.8c-1.8 0-3.2 1.4-3.2 3.2v12.9c0 1.8 1.4 3.2 3.2 3.2h4.8c-1.8 0-3.2-1.4-3.2-3.2Z" style="fill:#cee1f2;stroke:url(#d);stroke-miterlimit:10"/>
  <path d="M27.1 46.6c-3.7-.7-6.1-4-6.1-7.9s.6-4.3 2-5.7c1.4-1.4 3.5-2.4 5.7-2.4h1.6c0-5.3 4.3-9.7 9.7-9.7s9.7 4.3 9.7 9.7h1.6c4.4 0 7.7 3.6 7.7 8.1s-.6 4.3-2 5.7-2.5 1.9-4.1 2.2" style="stroke:url(#e);stroke-linecap:round;stroke-linejoin:round;stroke-width:1.2px;fill:none"/>
  <path d="M46.4 46.1H33.6" style="stroke:url(#f);stroke-linecap:round;stroke-linejoin:round;stroke-width:1.2px;fill:none"/>
  <path d="M43.2 59h-6.4c-1.8 0-3.2-1.4-3.2-3.2V42.9c0-1.8 1.4-3.2 3.2-3.2h6.4c1.8 0 3.2 1.4 3.2 3.2v12.9c0 1.8-1.4 3.2-3.2 3.2Z" style="stroke:url(#g);stroke-linecap:round;stroke-linejoin:round;stroke-width:1.2px;fill:none"/>
  <path d="M33.6 52.6h12.8" style="stroke:url(#h);stroke-linecap:round;stroke-linejoin:round;stroke-width:1.2px;fill:none"/>
  <path d="M52.9 52.6h0" style="stroke:url(#i);stroke-width:3px;stroke-linecap:round;stroke-linejoin:round;fill:none"/>
  <path d="M59 52.6h0" style="stroke:url(#j);stroke-width:3px;stroke-linecap:round;stroke-linejoin:round;fill:none"/>
  <path d="M21 52.6h0" style="stroke:url(#k);stroke-width:3px;stroke-linecap:round;stroke-linejoin:round;fill:none"/>
  <path d="M27.1 52.6h0" style="stroke-width:3px;stroke:url(#l);stroke-linecap:round;stroke-linejoin:round;fill:none"/>
  <path d="M40 33.9h0" style="stroke:url(#m);stroke-width:3px;stroke-linecap:round;stroke-linejoin:round;fill:none"/>
  <path d="M40 27.4h0" style="stroke:url(#n);stroke-width:3px;stroke-linecap:round;stroke-linejoin:round;fill:none"/>
</svg>
