<svg xmlns="http://www.w3.org/2000/svg" xmlns:xlink="http://www.w3.org/1999/xlink" viewBox="0 0 80 80">
  <defs>
    <linearGradient id="b" x1="40" x2="40" y1="82" y2="2" data-name="New Gradient Swatch" gradientTransform="matrix(1 0 0 -1 0 82)" gradientUnits="userSpaceOnUse">
      <stop offset="0" stop-color="#05050f" stop-opacity="0"/>
      <stop offset="1" stop-color="#8d8db9" stop-opacity=".2"/>
    </linearGradient>
    <linearGradient id="c" x1="40" x2="40" y1="82" y2="2" gradientTransform="matrix(1 0 0 -1 0 82)" gradientUnits="userSpaceOnUse">
      <stop offset="0" stop-color="#8d8db9"/>
      <stop offset="1" stop-color="#27273f"/>
    </linearGradient>
    <linearGradient id="a" x1="21.6" x2="58.4" y1="46.7" y2="46.7" data-name="New Gradient Swatch copy" gradientTransform="matrix(1 0 0 -1 0 82)" gradientUnits="userSpaceOnUse">
      <stop offset="0" stop-color="#5d79a0"/>
      <stop offset="1" stop-color="#c3cddc"/>
    </linearGradient>
    <linearGradient xlink:href="#a" id="d" x1="20.4" x2="59.6" y1="56.8" y2="56.8" data-name="New Gradient Swatch copy"/>
    <linearGradient xlink:href="#a" id="e" x1="23" x2="57" y1="43.2" y2="43.2" data-name="New Gradient Swatch copy"/>
    <linearGradient xlink:href="#a" id="f" x1="23" x2="24.2" y1="41.5" y2="41.5" data-name="New Gradient Swatch copy"/>
    <linearGradient xlink:href="#a" id="g" x1="23" x2="31.7" y1="35.1" y2="35.1" data-name="New Gradient Swatch copy"/>
    <linearGradient xlink:href="#a" id="h" x1="30.4" x2="49.6" y1="35.1" y2="35.1" data-name="New Gradient Swatch copy"/>
    <linearGradient xlink:href="#a" id="i" x1="35.9" x2="44.1" y1="47.4" y2="47.4" data-name="New Gradient Swatch copy"/>
    <linearGradient xlink:href="#a" id="j" x1="36.2" x2="43.9" y1="47.4" y2="47.4" data-name="New Gradient Swatch copy"/>
    <linearGradient xlink:href="#a" id="k" x1="39.4" x2="40.6" y1="21.9" y2="21.9" data-name="New Gradient Swatch copy"/>
    <linearGradient xlink:href="#a" id="l" x1="37.4" x2="42.6" y1="36.6" y2="36.6" data-name="New Gradient Swatch copy"/>
    <linearGradient xlink:href="#a" id="m" x1="37.4" x2="42.6" y1="33" y2="33" data-name="New Gradient Swatch copy"/>
    <linearGradient xlink:href="#a" id="n" x1="39.4" x2="40.6" y1="30.8" y2="30.8" data-name="New Gradient Swatch copy"/>
    <linearGradient xlink:href="#a" id="o" x1="39.4" x2="40.6" y1="38.8" y2="38.8" data-name="New Gradient Swatch copy"/>
    <linearGradient xlink:href="#a" id="p" x1="50.3" x2="53.8" y1="47.3" y2="47.3" data-name="New Gradient Swatch copy"/>
    <linearGradient xlink:href="#a" id="q" x1="47" x2="53.8" y1="50.3" y2="50.3" data-name="New Gradient Swatch copy"/>
    <linearGradient xlink:href="#a" id="r" x1="26.2" x2="29.7" y1="47.3" y2="47.3" data-name="New Gradient Swatch copy"/>
    <linearGradient xlink:href="#a" id="s" x1="26.2" x2="33" y1="50.3" y2="50.3" data-name="New Gradient Swatch copy"/>
  </defs>
  <path d="M40 .5C61.8.5 79.5 18.2 79.5 40S61.8 79.5 40 79.5.5 61.8.5 40 18.2.5 40 .5Z" style="fill:url(#b)"/>
  <path d="M40 .5C61.8.5 79.5 18.2 79.5 40S61.8 79.5 40 79.5.5 61.8.5 40 18.2.5 40 .5Z" style="stroke:url(#c);fill:none"/>
  <path d="M54.7 59H25.4c-2.4 0-4.3-1.9-4.3-4.3h38c0 2.4-1.9 4.3-4.3 4.3Z" style="stroke:url(#d);fill:none;stroke-linecap:round;stroke-linejoin:round;stroke-width:1.2px"/>
  <path d="M23.6 44.6v10h32.7v-21c0-1-.8-1.9-1.9-1.9h-5.7" style="stroke:url(#e);fill:none;stroke-linecap:round;stroke-linejoin:round;stroke-width:1.2px"/>
  <path d="M23.6 41.5h0" style="stroke:url(#f);fill:none;stroke-linecap:round;stroke-linejoin:round;stroke-width:1.2px"/>
  <path d="M31.1 31.8h-5.7c-1 0-1.9.8-1.9 1.9v4.8" style="stroke:url(#g);fill:none;stroke-linecap:round;stroke-linejoin:round;stroke-width:1.2px"/>
  <path d="M49 34.7c0-5-4-9-9-9s-9 4-9 9c0 3.1 1.6 5.9 4.1 7.5.7.5 1.3 1.3 1.4 2.1h7c.2-.9.7-1.6 1.4-2.1 2.5-1.6 4.1-4.4 4.1-7.5Z" style="stroke:url(#h);fill:none;stroke-linecap:round;stroke-linejoin:round;stroke-width:1.2px"/>
  <path d="M42 50.3h-3.9l-1.5-1.5v-4.4h7v4.4l-1.5 1.5Z" style="stroke:url(#i);fill:none;stroke-linecap:round;stroke-linejoin:round;stroke-width:1.2px"/>
  <path d="M36.8 47.4h6.6" style="stroke:url(#j);fill:none;stroke-linecap:round;stroke-linejoin:round;stroke-width:1.2px"/>
  <path d="M40 21v1.8" style="stroke:url(#k);fill:none;stroke-linecap:round;stroke-linejoin:round;stroke-width:1.2px"/>
  <path d="M38 36.6c0 1 .9 1.8 2 1.8s2-.8 2-1.8-.9-1.8-2-1.8" style="stroke:url(#l);fill:none;stroke-linecap:round;stroke-linejoin:round;stroke-width:1.2px"/>
  <path d="M40 34.8c-1.1 0-2-.8-2-1.8s.9-1.8 2-1.8 2 .8 2 1.8" style="stroke:url(#m);fill:none;stroke-linecap:round;stroke-linejoin:round;stroke-width:1.2px"/>
  <path d="M40 30.4v.8" style="stroke:url(#n);fill:none;stroke-linecap:round;stroke-linejoin:round;stroke-width:1.2px"/>
  <path d="M40 38.5v.7" style="stroke:url(#o);fill:none;stroke-linecap:round;stroke-linejoin:round;stroke-width:1.2px"/>
  <path d="M50.9 47.3h2.3" style="stroke:url(#p);fill:none;stroke-linecap:round;stroke-linejoin:round;stroke-width:1.2px"/>
  <path d="M47.6 50.3h5.6" style="stroke:url(#q);fill:none;stroke-linecap:round;stroke-linejoin:round;stroke-width:1.2px"/>
  <path d="M29.1 47.3h-2.3" style="stroke:url(#r);fill:none;stroke-linecap:round;stroke-linejoin:round;stroke-width:1.2px"/>
  <path d="M32.4 50.3h-5.6" style="stroke:url(#s);fill:none;stroke-linecap:round;stroke-linejoin:round;stroke-width:1.2px"/>
</svg>
