<?xml version="1.0" encoding="UTF-8"?>
<svg xmlns="http://www.w3.org/2000/svg" version="1.1" viewBox="0 0 512 198">
  <defs>
    <style>
      .cls-1 {
        fill: #dbd8e8;
      }
    </style>
  </defs>
  <!-- Generator: Adobe Illustrator 28.6.0, SVG Export Plug-In . SVG Version: 1.2.0 Build 709)  -->
  <g>
    <g id="Layer_1">
      <g>
        <path class="cls-1" d="M.2,57.5c1.6-4.7,2.9-9.6,4.9-14.1C19.7,10.2,60-2.8,91.5,15.3c1.4.8,2.7,1.6,4.3,2.6,2.3-2.9,6.9-4.4,4.2-9.7-1-2,.6-3.3,2.8-2.8,1.9.4,3.8,1.2,5.7,1.8,0-.2.2-.4.3-.7.3-1.9.6-3.8.9-5.6,1.9,1,4.3,1.6,5.7,3.2,1.7,1.9,3.3,2.5,5.8,2.6,2.8,0,5.7.7,8.4,1.4,6.4,1.6,12.7,1.9,19.2.7,8.8-1.6,17.9,3.1,22.1,10.9.3.6.8,1.2,1.3,1.7,4.2,4.9,2.5,9.8-3.9,11.3-.4.1-.8.2-1.3.2-7.5.4-14.7,1-21.4,5.7-2.8,2-7.5,1.1-11.3,1.9-1.9.4-3.9,1.4-5.2,2.7-2.2,2.3-3.8,5.3-5.8,7.8-1.9,2.3-2.7,4.4-2.2,7.7,3.3,19.1,0,36.9-11.4,53.1-14.3,20.1-28.2,40.5-42.2,60.8-4.7,6.8-8.5,6.9-13.2.1-14.7-21.1-29.7-41.9-43.8-63.4-4.6-7-6.9-15.5-10.2-23.4,0-9.5,0-18.9,0-28.4ZM64.3,18.9c-26.7,0-46.6,15.9-51.4,38.3-.3,1.4.5,3.8,1.6,4.6,12.4,9.2,25.7,11.5,40.6,6,18.2-6.7,28.4-20.2,34.4-37.6.3-.9-.9-2.9-2-3.5-8.1-5.3-17.2-7.7-23.2-7.8ZM110,70.4c-19.2,27.4-44.6,44.6-78.9,48.4,10.1,14.5,19.6,28.2,29.9,43,.7-1.4,1-2.2,1.5-2.9,13.3-19.2,26.8-38.3,39.9-57.6,6.2-9.1,8.5-19.5,7.5-30.9Z"/>
        <path class="cls-1" d="M445.9,197.8v-17.8c1.3-.1,2.4-.3,3.5-.4,6.9-.3,8.8-1.6,10.7-8.2,0-.1,0-.3.1-.4,5.8-13.9,5.1-27.1-1.3-41.1-7.1-15.4-12-31.8-17.9-47.8-.5-1.3-.9-2.6-1.6-4.8,6.8,0,13-.2,19.2.2,1,0,2.3,2.3,2.8,3.7,4.4,12.8,8.7,25.7,13.1,38.6.4,1.2.8,2.4,1.5,4.4.7-1.6,1.2-2.7,1.6-3.8,4.3-13.2,8.7-26.4,12.8-39.6.8-2.6,2-3.7,4.8-3.6,5.4.2,10.9,0,17,0-.5,1.9-.8,3.2-1.3,4.5-11.4,32.7-22.9,65.3-34.2,98.1-3.4,9.8-9.2,16.2-19.7,18h-11.2Z"/>
        <path class="cls-1" d="M187.8,155.7c-5.7,0-11-.1-16.3,0-4.3.1-2.1-3.5-3.5-5.6-8.4,7-18.2,7.2-28.1,4.7-11.2-2.8-17-12.2-16.4-25.4.5-10,7.6-18.2,18.4-19.6,8.5-1.1,17.2-1,25.8-1.4,2.3-8.2-1.5-14-10-14.9-8.7-.9-11.1-.2-20,6.5-1.6-2-3.2-4.4-5.1-6.5-1.8-2-4-3.6-6.3-5.6,4-5.3,8.7-8.5,14.3-9.9,10.2-2.6,20.5-2.5,30.6.7,10.2,3.3,16.3,11,16.6,21.7.4,17.3.3,34.7.3,52,0,.8-.2,1.7-.4,3.2ZM168.3,123.1c-6.7,0-12.7-.2-18.7,0-3.5.2-6.2,2.1-6.8,6-.6,3.9-.3,7.8,3.9,9.5,5.8,2.3,11.9,2.4,17.3-1.2,5.1-3.4,4.2-8.9,4.3-14.4Z"/>
        <path class="cls-1" d="M354.3,155.7c-.2-2.2-.3-3.7-.5-5.4-.4,0-1,0-1.2.2-8.6,7-18.4,6.8-28.2,4.2-10.3-2.7-16.5-12.5-16-24.2.4-10.5,7.4-18.8,18-20.6,4.6-.8,9.4-.8,14.1-.9,4-.1,8,0,12,0,2.6-8.7-1.1-14.4-9.7-15.3-7-.7-13.5-.2-18.4,5.9-4.1-4.5-8-8.6-12-12.9,8-9.5,19.4-10.6,31.3-10.1,3,.1,6,.7,8.9,1.3,13.5,3,20.5,11.3,20.7,25.2.3,16.3,0,32.7.1,49,0,2.8-1,3.8-3.7,3.7-5-.2-10,0-15.4,0ZM353.2,123.1c-6.5,0-12.5-.2-18.5,0-3.8.2-6.4,2.5-6.9,6.5-.5,4,.3,7.7,4.5,9.2,5.7,2,11.7,2.1,16.9-1.4,5.1-3.4,4.1-8.9,4-14.4Z"/>
        <path class="cls-1" d="M194.5,145.1c4.5-4.5,8.5-8.6,12.8-12.9,6.6,5.9,14.6,7.4,23.2,6.9,2-.1,4-.5,5.9-1.2,3.3-1.1,5.6-3.3,5.2-7-.4-3.9-3.1-5.7-6.7-6.1-5.6-.7-11.2-1.1-16.7-1.8-13.4-1.7-19.9-9.3-19.6-22.6.2-10.2,5.9-17.9,16.7-21.6,11.8-4.1,23.5-3.1,35,1.3,2.9,1.1,5.4,3.2,8,4.8-4.4,4-8.4,7.7-12.6,11.5-4.3-1.1-10-2.9-15.9-3.7-2.7-.4-5.9.7-8.6,1.9-3,1.2-4.4,4.3-3.1,7.1.9,2,3.4,4,5.5,4.4,5.2,1.1,10.5,1.3,15.8,1.9,12.5,1.4,19.6,7.8,21.5,19.2,1.8,11-3.5,21.4-14.6,25.5-16,6-32.1,5.8-47.1-3.6-1.7-1-3-2.6-4.6-4Z"/>
        <path class="cls-1" d="M305.8,79.6v14.9h-14.2v60.8h-19.6c-.1-1.8-.4-3.6-.4-5.4,0-16.3,0-32.7,0-49q0-6-5.8-6.3c-.6,0-1.1-.2-2-.3v-14.5c2.4-.1,4.7-.3,7.8-.4,0-2.4,0-4.6,0-6.9.1-16.8,8.1-24.8,24.8-24.8,3,0,6,0,9.3,0v15.6c-4.5,1.2-9.9,1.2-12.6,3.9-2.3,2.3-1.5,7.7-2.2,12.3h14.9Z"/>
        <path class="cls-1" d="M401.4,155.5h-19.4v-78.1c5.8,0,11.6-.3,17.2.2,1.1.1,1.9,3.4,2.9,5.4,11.7-8.1,24.2-9.8,36.4.3-5.2,5-10.1,9.7-14.9,14.3-2.7-.9-6.1-2.7-9.5-2.9-6.7-.5-11.8,3.8-12.2,10.6-.6,9.1-.5,18.3-.6,27.5,0,7.4,0,14.9,0,22.7Z"/>
      </g>
    </g>
  </g>
</svg>