<?xml version="1.0" encoding="UTF-8"?>
<svg xmlns="http://www.w3.org/2000/svg" version="1.1" viewBox="0 0 512 185">
  <defs>
    <style>
      .cls-1 {
        fill: #ccc9e3;
      }

      .cls-2 {
        fill: #dcd9e8;
      }

      .cls-3 {
        fill: #b6b2d6;
      }
    </style>
  </defs>
  <!-- Generator: Adobe Illustrator 28.6.0, SVG Export Plug-In . SVG Version: 1.2.0 Build 709)  -->
  <g>
    <g id="Layer_1">
      <g>
        <g>
          <g>
            <path class="cls-2" d="M420.2,134.4c-2.2,0-4.2-1.2-5.3-3.3l-30-61.4-30,61.4c-1.5,3-5,4.2-7.9,2.7-2.9-1.5-4.1-5.1-2.6-8.1l35.3-72.2c1-2,3-3.3,5.3-3.3s4.3,1.3,5.3,3.3l35.3,72.2c1.5,3,.3,6.6-2.6,8.1-.8.4-1.7.6-2.6.6Z"/>
            <path class="cls-2" d="M384.9,110.4c-.4,0-.8,0-1.2-.1-.4,0-.7-.2-1.1-.3-.4-.2-.7-.3-1-.6-.3-.2-.6-.5-.9-.7-.3-.3-.5-.6-.7-.9-.2-.3-.4-.7-.5-1-.1-.4-.3-.7-.3-1.1,0-.4-.1-.8-.1-1.2s0-.8.1-1.2c0-.4.2-.8.3-1.1.1-.4.3-.7.5-1,.2-.3.5-.6.7-.9s.6-.5.9-.7c.3-.2.7-.4,1-.6.4-.1.7-.3,1.1-.3,1.9-.4,3.9.2,5.3,1.6.3.3.5.6.7.9.2.3.4.7.5,1,.1.4.3.7.3,1.1,0,.4.1.8.1,1.2s0,.8-.1,1.2c0,.4-.2.8-.3,1.1-.1.4-.3.7-.5,1-.2.3-.5.6-.7.9-1.1,1.1-2.6,1.8-4.1,1.8Z"/>
          </g>
          <g>
            <path class="cls-2" d="M506.4,134.4c-1.5,0-3-.6-4.2-1.8l-31.1-31.8-31.1,31.8c-1.7,1.7-4.2,2.2-6.4,1.3-2.2-.9-3.6-3.1-3.6-5.6V56.3c0-3.3,2.6-6,5.9-6s5.9,2.7,5.9,6v57.6l25.2-25.8c2.3-2.3,6-2.3,8.3,0l25.2,25.8v-40.3c0-3.3,2.6-6,5.9-6s5.9,2.7,5.9,6v54.8c0,2.4-1.4,4.6-3.6,5.6-.7.3-1.5.5-2.3.5Z"/>
            <path class="cls-2" d="M506.4,62.3c-.4,0-.8,0-1.2-.1-.4,0-.7-.2-1.1-.3-.4-.2-.7-.3-1-.6-.3-.2-.6-.5-.9-.8-.3-.3-.5-.6-.7-.9-.2-.3-.4-.7-.5-1-.1-.4-.3-.7-.3-1.1,0-.4-.1-.8-.1-1.2s0-.8.1-1.2c0-.4.2-.8.3-1.1.1-.4.3-.7.5-1s.5-.6.7-.9c.3-.3.6-.5.9-.7.3-.2.7-.4,1-.6.4-.1.7-.3,1.1-.3.8-.2,1.5-.2,2.3,0,.4,0,.7.2,1.1.3.4.2.7.3,1,.6.3.2.6.5.9.7.3.3.5.6.7.9.2.3.4.7.5,1,.1.4.3.7.3,1.1,0,.4.1.8.1,1.2s0,.8-.1,1.2c0,.4-.2.8-.3,1.1-.1.4-.3.7-.5,1-.2.3-.5.6-.7.9-.3.3-.6.5-.9.8-.3.2-.7.4-1,.6-.4.1-.7.3-1.1.3-.4,0-.8.1-1.2.1Z"/>
          </g>
          <g>
            <path class="cls-2" d="M334.1,134.4c-1.5,0-3-.6-4.1-1.8l-23.5-24.1c-1.7-1.7-2.2-4.3-1.3-6.5.9-2.2,3.1-3.7,5.4-3.7h11.8c9.7,0,17.6-8.1,17.6-18s-7.9-18-17.6-18h-41.1v66.1c0,3.3-2.6,6-5.9,6s-5.9-2.7-5.9-6V56.3c0-3.3,2.6-6,5.9-6h47c16.2,0,29.4,13.5,29.4,30.1s-11.9,28.7-27,30l13.6,13.9c2.3,2.3,2.3,6.2,0,8.5-1.2,1.2-2.7,1.8-4.2,1.8Z"/>
            <path class="cls-2" d="M292.9,110.4c-.4,0-.8,0-1.2-.1-.4,0-.7-.2-1.1-.3-.4-.2-.7-.3-1-.6-.3-.2-.6-.5-.9-.7-1.1-1.1-1.7-2.7-1.7-4.3s0-.8.1-1.2c0-.4.2-.8.3-1.1.1-.4.3-.7.5-1,.2-.3.5-.6.7-.9s.6-.5.9-.7c.3-.2.7-.4,1-.6.4-.1.7-.3,1.1-.3.8-.2,1.5-.2,2.3,0,.4,0,.7.2,1.1.3.4.2.7.3,1,.6.3.2.6.5.9.7,1.1,1.1,1.7,2.7,1.7,4.3s-.6,3.1-1.7,4.3c-.3.3-.6.5-.9.7-.3.2-.7.4-1,.6-.4.1-.7.3-1.1.3-.4,0-.8.1-1.2.1Z"/>
          </g>
        </g>
        <g>
          <g>
            <path class="cls-2" d="M115.3,25.9c14.2-9.3,29-17.4,43.5-26.1,31.4,18.5,62.8,37.1,94.2,55.6-10.3,6.3-20.7,12.3-31,18.5-21.1,12.8-42.9,24.6-63.6,38,4.1-15.6,4.9-32.6-1.7-47.6-7.2-18.5-23.3-32-41.5-38.4Z"/>
            <path class="cls-2" d="M159,148c20.9-12.5,41.9-24.8,62.9-37.2,10.4,6,20.7,12.2,31.1,18.4-31.3,18.7-62.8,37.1-94.1,55.7-17-9.9-33.9-20.1-50.9-30,12.3-2.8,23.7-8.5,33.2-17,6,3.3,11.9,6.7,17.8,10.1Z"/>
            <path class="cls-3" d="M158.4,111.9c20.7-13.5,42.5-25.2,63.6-38,10.3,6.2,20.7,12.2,31,18.5-10.3,6.2-20.7,12.3-31.1,18.4-21,12.4-42,24.7-62.9,37.2-6-3.4-11.9-6.8-17.8-10.1,7.5-7.4,12.5-16.6,17.3-25.9Z"/>
          </g>
          <g>
            <path class="cls-1" d="M19.4,77.5c4.2-29.3,27.1-54.5,55.5-60.5,29.2-7.3,62.3,6.2,77.8,32.7,17.7,27.5,14.3,66.8-8.1,90.6-23.4,27.1-65.9,30.8-94.9,11.1-10.2,10.4-20.3,20.8-30.5,31.2-6.3-6.4-12.7-12.9-19-19.4,10-10.5,20.2-20.8,30.3-31.2-9.2-16.4-14.8-35.6-11.1-54.5ZM79.9,39.4c-21.9,5.1-39.5,26.5-38.9,49.7-1,24.8,18.4,47.6,42,51.4,29.4,5.9,59.6-20.6,58.5-51.2.7-31.5-31.5-58.4-61.6-49.9Z"/>
            <path class="cls-2" d="M76.7,110.9c-11.2-8-13.9-23.9-6-35.5l-14.3-10.2c-.9,1.3-1.7,2.6-2.4,4l5.2,5.8c-.8,1.9-1.5,3.8-2,5.7l-7.7,1.1c-.6,3.1-.9,6.2-.8,9.3l7.4,2.3c.2,2,.5,4,1,5.9l-6.2,4.9c1,2.9,2.2,5.8,3.8,8.4l7.6-1.8c1.1,1.6,2.4,3.2,3.8,4.6l-3,7.4c1.1,1,2.3,2,3.6,2.8s2.5,1.7,3.9,2.4l5.7-5.5c1.8.8,3.6,1.5,5.5,2l1,7.9c3,.6,6,.8,9.1.7l2.3-7.6c2-.2,3.9-.6,5.8-1.1l4.7,6.3c2.9-1,5.6-2.4,8.3-4l-1.7-7.8c1.6-1.2,3.1-2.5,4.5-3.9l7.2,3c1-1.2,1.9-2.4,2.8-3.7l-14.3-10.2c-8,11.6-23.5,14.6-34.7,6.6Z"/>
            <path class="cls-2" d="M84.1,100c-5.4-3.8-6.7-11.5-2.9-17.1l-6.9-4.9c-.4.6-.8,1.3-1.2,1.9l2.5,2.8c-.4.9-.7,1.8-1,2.7l-3.7.5c-.3,1.5-.4,3-.4,4.5l3.6,1.1c0,1,.2,1.9.5,2.9l-3,2.3c.5,1.4,1.1,2.8,1.8,4.1l3.6-.9c.5.8,1.1,1.5,1.8,2.2l-1.5,3.6c.5.5,1.1.9,1.7,1.4.6.4,1.2.8,1.9,1.2l2.8-2.6c.9.4,1.8.7,2.7,1l.5,3.8c1.4.3,2.9.4,4.4.4l1.1-3.7c.9,0,1.9-.3,2.8-.5l2.3,3c1.4-.5,2.7-1.1,4-1.9l-.8-3.7c.8-.6,1.5-1.2,2.2-1.9l3.4,1.4c.5-.6.9-1.2,1.4-1.8l-6.9-4.9c-3.8,5.6-11.3,7-16.7,3.2Z"/>
            <g>
              <path class="cls-2" d="M74.1,57.6s0,.5-.2,1.2c11.4-6.7,25.9-6.6,37.3,1.5,14.4,10.2,18.8,29.7,11,45.5l6.1,4.3c10.1-19.2,5-43.4-12.8-56.1-14-10-31.9-9.9-45.8-1.5l1.5.5,2.9,4.5Z"/>
              <path class="cls-2" d="M71.6,59.9l-5.4,4.3c2.4,1.3,5.4,1.1,7.6-.7,3.1-2.5,3.8-7.1,1.4-10.3-2.4-3.2-6.8-3.8-10-1.3-2.3,1.8-3.2,4.7-2.7,7.4l5.4-4.3,3.4,1.2.2,3.7Z"/>
            </g>
            <g>
              <path class="cls-2" d="M80.2,75.9c5.9-4.8,14.4-5.4,20.9-.8,4.1,2.9,6.5,7.3,7.2,12l2.4-2.1,3.7-.2,1.2.9c-1-6.6-4.5-12.8-10.2-16.9-9.8-7-23-5.6-31.4,2.6l6.3,4.4Z"/>
              <path class="cls-2" d="M116.5,83.8c-3.1-2.4-7.6-1.7-10,1.6-2.4,3.3-1.7,7.8,1.4,10.2,3.1,2.4,7.6,1.7,10-1.6,2.4-3.3,1.7-7.8-1.4-10.2ZM112.4,93.5l-3.4-1.7-.2-3.8,3.1-2.2,3.4,1.7.2,3.8-3.1,2.2Z"/>
            </g>
          </g>
        </g>
      </g>
    </g>
  </g>
</svg>