<?xml version="1.0" encoding="UTF-8"?>
<svg xmlns="http://www.w3.org/2000/svg" version="1.1" viewBox="0 0 512 218">
  <defs>
    <style>
      .cls-1 {
        fill: #dbd8e8;
      }
    </style>
  </defs>
  <!-- Generator: Adobe Illustrator 28.6.0, SVG Export Plug-In . SVG Version: 1.2.0 Build 709)  -->
  <g>
    <g id="Layer_1">
      <g id="R7HLzI">
        <g>
          <path class="cls-1" d="M269.7-.2c0,35.4,0,70.9,0,106.3,0,5.1,0,5.4,5.4,5.4,20.7.2,41.3,2.2,61.8,5.4,52.8,8.1,103,23.9,149.1,51.3,2.6,1.5,5.4,2.8,7.5,5.3-1.6.6-2.6-.4-3.7-.9-46.6-22.3-95.3-37.7-146.3-45.9-21.8-3.5-43.7-5.5-65.8-6.4-20.5-.9-40.9-.4-61.3,1.2-56,4.3-110.4,16.2-163.1,35.9-10.4,3.9-20.7,8.1-30.8,12.7-1.1.5-2.2,1.2-4.2.4,7.3-4,14-7.9,20.9-11.4,36.5-18.6,75.2-31,115.3-38.8,23.5-4.5,47.2-7.7,71.1-8.6,3.1-.1,6.2-.6,9.2-.5,3,0,3.8-1.2,3.7-4,0-17.9,0-35.8.1-53.7,0-1.7-.6-3.9,2.4-4.1,2.9-.2,4.4.5,4.2,3.8-.2,3.7,0,7.4,0,11.1,0,2,.8,2.9,2.9,2.9,2.1,0,2.9-1,2.8-2.9,0-1.1,0-2.2,0-3.3-.1-3.5-.6-7.2,5-6.5,2.2.3,1.9-1.9,1.9-3.3,0-9.3.1-18.5,0-27.8,0-3,.5-4.8,4-4.4,2,.3,2.9-.9,2.9-2.9-.1-5.4-.2-10.9-.2-16.3h5.2Z"/>
          <path class="cls-1" d="M321.4,217.2c-.5-1.2-.3-1.9,1.1-2,2.7-.2,3-2,3-4.2,0-7.9,0-15.8.1-23.7,0-2.4-.3-4.2-3.2-4.3-.6,0-1.2-.2-1.2-1,0-1,.7-1.2,1.5-1.2,3.3,0,6.7,0,10,0,1.8,0,1.9,1.7,2.5,2.8,3.6,7.5,7.1,15,11.1,23.4,3.7-7.7,7.3-14.6,10.3-21.7,1.5-3.5,3.1-5.1,7-4.4,1.9.4,3.9,0,5.9,0,.6,0,1.3,0,1.4.8,0,.8-.4,1.1-1.1,1.1-3.2,0-3.3,2.2-3.3,4.6,0,7.5,0,15,0,22.6,0,2.3-.3,4.9,3.3,4.9.7,0,1.2.5,1.1,1.2-.2,1.1-1,.8-1.7.8-3,0-5.9-.1-8.9,0-1.1,0-2.5-.6-3.4.6h-2.2c0-1.2-.3-2.5,1.7-2.5,1.8,0,2.7-1.2,2.7-2.9,0-7.6,0-15.1,0-22.7-5.2,9.2-10.1,18.4-14,28.1h-2.2c-3.5-9.8-8.7-18.7-13.3-28-.4,7.5-.4,14.9-.4,22.2,0,1.7.6,2.8,2.5,3.1,1.2.2,2.8.3,1.3,2.2-3.7-.5-7.5-.4-11.3,0Z"/>
          <path class="cls-1" d="M62.1,217.7c-.6-1.1-1.5-2.4.8-2.5,3.1,0,3.5-1.9,3.5-4.4,0-7.8,0-15.6,0-23.3,0-2.4-.1-4.6-3.3-4.6-.7,0-1.3-.3-1.1-1.1.1-.7.7-.9,1.4-.9,4.7,0,9.4,0,14.1,0,.7,0,1.2.3,1.2,1,0,.9-.6,1-1.2,1-2.9,0-3.2,1.8-3.3,4.2-.2,9.8-.3,9.8,9.4,9.8,6.9,0,7,0,6.8-6.8-.1-3,1.3-7.2-4.1-7.3-.5,0-.8-.6-.5-1.1.2-.3.7-.7,1.1-.7,4.8,0,9.6,0,14.4,0,.5,0,1,.2,1.1.8.1.7-.2,1.2-1,1.2-3.8-.1-3.4,2.6-3.4,5.1,0,7.8,0,15.6,0,23.3,0,2,0,3.7,2.8,3.7,2.4,0,1.7,1.4.9,2.7h-15.5c-.1-.8-1.9-2,.5-2.2,3-.3,3.7-2.3,3.6-4.9,0-2.8,0-5.7.2-8.5.1-1.8-.6-2.4-2.3-2.3-3.9.1-7.9.1-11.8.1-1.6,0-2.2.5-2.1,2.1.1,3.1.1,6.2,0,9.2,0,2.1.4,3.6,2.9,3.8,2.3.1,1.7,1.4.8,2.7h-15.5Z"/>
          <path class="cls-1" d="M501.8,217.7c-2.6-5.8-6.7-10.6-9.8-16-.6-1-1.3-2.1-2.2-3.5,2.6-.2,4.9-.4,6.7-2.2,2.4-2.3,3.2-6,1.8-8.8-1.3-2.5-5.3-4.1-8.3-3.5-1.5.3-1.6,1.3-1.6,2.4-.2,8.3-.9,16.5-.1,24.8.2,2.2.2,4.3,3.2,4.3.6,0,1.3.2,1.2,1.1,0,.8-.8.9-1.4.9-4.4,0-8.9,0-13.3,0-.6,0-1.3.1-1.5-.7-.2-.8.3-1.3.9-1.3,3.2,0,2.9-2.3,2.9-4.4,0-7.7,0-15.3,0-23,0-2.1.2-4.4-2.9-4.6-.6,0-1.2-.4-1.1-1.2.2-1,.9-.9,1.7-.9,6.7,0,13.3-.1,20,0,3.7,0,6.9,1.2,8,5.2,1.2,4.1-.4,8.4-4.5,10.4-3,1.5-2.9,2.7-1.1,5.1,2.6,3.4,4.8,7.2,7.3,10.7,1,1.4,1.9,3.4,4.3,2.5.6,2.5-.4,3.3-3,3-2.4-.3-4.9,0-7.4,0Z"/>
          <path class="cls-1" d="M4.4,217.7c0-.1,0-.3,0-.4-4.1-2.6-4.7-4.3-3.7-9.6.2-.9.4-1.4,1.3-1.3,1,0,1,.8,1.2,1.5,1.4,6.7,9.4,9.5,14.6,5.3,2-1.6,2.7-3.7,2.4-6.2-.4-2.6-2-3.8-4.4-4.3-2.5-.5-5.1-.9-7.6-1.5-4.9-1.1-7.4-3.8-7.8-8.1-.4-5,1.9-9.5,6.2-11.2,5.3-2.2,10.9-2,16.3-.3,3.3,1,.9,4,1.2,6.1.1.9.4,2.5-1.3,2.6-1.5,0-.9-1.5-1.1-2.3-.8-3.6-3.8-5.1-9.1-4.5-3.5.4-6,2.8-5.9,5.9,0,2.9,1.8,4.5,4.4,5.2,2.4.6,4.8.8,7.3,1.3,3.7.7,7,1.9,8.1,6,1.2,4.6,0,8.7-3.4,12.2-2,2-4.7,2.3-7,3.7H4.4Z"/>
          <path class="cls-1" d="M209.4,217.7c0-.2-.1-.6,0-.7,4.2-3.6,2.8-8.4,2.9-12.9.1-5.7,0-11.3,0-17,0-2.2-.3-4-3.1-4-.7,0-1.6-.1-1.5-1.2.1-1.3,1.2-1,2-1,4.3,0,8.6,0,12.9,0,.7,0,1.6-.1,1.9.7.3,1.3-.8,1.4-1.6,1.4-2.4.2-3,1.5-3,3.7,0,8.1,0,16.3-.1,24.4,0,2,.5,3,2.7,2.8,2.1-.2,4.2,0,6.3,0,2.8,0,5.1-.7,5.2-4.2,0-1,.4-2.1,1.7-1.9,1.6.2,1,1.5.7,2.3-.8,2.5.6,5.5-1.9,7.5h-9.6c-4.4-1.1-8.9-1.1-13.3,0h-2.2Z"/>
          <path class="cls-1" d="M270.8,217.7c-.6-1.1-1.5-2.1.9-2.3,2.7-.2,3.5-2,3.5-4.6,0-7.9,0-15.8,0-23.7,0-2.4-.5-4.1-3.3-4.2-.7,0-1.6-.1-1.5-1.2.2-.9,1-.9,1.8-.9,4.4,0,8.9,0,13.3,0,.7,0,1.6,0,1.6,1,0,1.1-.9,1-1.6,1-2.4.2-2.9,1.7-2.9,3.8,0,8.1,0,16.3,0,24.4,0,2,.1,3.7,2.8,3.8,2.4,0,1.7,1.4.9,2.7h-15.5Z"/>
          <path class="cls-1" d="M211.6,217.7c4.4-1.1,8.9-1.1,13.3,0h-13.3Z"/>
          <path class="cls-1" d="M332.7,217.2c.2,0,.3.2.3.4h-12.6c.3-.2.7-.3,1-.5,3.8-.3,7.5-.5,11.3,0Z"/>
          <path class="cls-1" d="M435.3,217.1c-2.2,0-4.4,0-6.7,0-.6,0-1.3,0-1.4-.8-.2-.9.4-1.4,1.2-1.4,3.2,0,2.2-1.7,1.8-3.7-.9-4-3-5.9-7.2-5.3-1.1.2-2.2,0-3.3,0-5,.1-6.5,1.7-7.1,6.7-.2,2,.9,1.9,2.2,2.1.9,0,1.9.2,1.8,1.4-.1,1.3-1.2.9-2,.9-2.7,0-5.4,0-8.1,0-.7,0-1.6.3-1.8-.7-.2-.9.4-1.4,1.2-1.4,2.4-.2,2.9-2.1,3.6-3.8,3.8-9.2,7.6-18.4,11.4-27.6.6-1.4.8-3,3.1-3,2.3,0,2.5,1.7,3.1,3.1,3.8,8.9,7.6,17.9,11.4,26.8.8,1.9,1.2,4.4,4.2,4.5.8,0,.9.7.8,1.4-.1.8-.8.8-1.4.8-2.2,0-4.4,0-6.7,0ZM421.4,189.8c-1.7,4.2-3.2,7.8-4.7,11.3-.5,1.2-.2,1.9,1.2,1.9,2.9,0,5.8,0,9.2,0-2-4.6-3.7-8.6-5.7-13.3Z"/>
          <path class="cls-1" d="M166.8,217.1c-2.1,0-4.2,0-6.3,0-.7,0-1.6.1-1.7-.9,0-.9.6-1.3,1.4-1.3,3,0,2-1.8,1.6-3.5-.9-4.2-3.3-6-7.6-5.4-1.2.2-2.5,0-3.7,0-4.2.1-6.5,2.6-6.5,6.9,0,1.9,1.3,1.7,2.5,1.9.8,0,1.5.4,1.4,1.3,0,1.1-.9.9-1.7.9-3,0-5.9,0-8.9,0-.6,0-1.3,0-1.4-.9,0-.7.2-1.3,1-1.3,2.7-.1,3.2-2.4,4-4.3,3.7-8.8,7.3-17.7,11-26.6.6-1.5.7-3.6,3.4-3.6,2.5,0,2.6,1.9,3.2,3.4,3.8,8.9,7.6,17.9,11.4,26.8.8,1.9,1.3,4.1,4,4.3.7,0,1,.7.9,1.3-.1.8-.8.8-1.4.8-2.2,0-4.4,0-6.7,0,0,0,0,0,0,0ZM153,189.9c-1,2.3-1.8,4.1-2.5,5.8-.8,2.3-3.3,5.4-2.1,6.6,1.9,1.9,5.5.6,8.4.7.1,0,.2,0,.4,0,1,0,1.2-.6.8-1.5-1.6-3.7-3.2-7.3-5-11.6Z"/>
        </g>
      </g>
    </g>
  </g>
</svg>