<?xml version="1.0" encoding="UTF-8"?>
<svg xmlns="http://www.w3.org/2000/svg" version="1.1" viewBox="0 0 512 212">
  <defs>
    <style>
      .cls-1 {
        fill: #dbd8e8;
      }
    </style>
  </defs>
  <!-- Generator: Adobe Illustrator 28.6.0, SVG Export Plug-In . SVG Version: 1.2.0 Build 709)  -->
  <g>
    <g id="Layer_1">
      <g>
        <path class="cls-1" d="M24.6,33.7C31.7,11.7,43.6,2.4,66.5,1.3c14.1-.6,28.2-.4,42.3-.4,61,0,122,.1,183.1.2,9.7,0,19.3,0,28.8,2.2,17.4,3.9,28.5,16.6,29.1,33.4.6,17.2-9.6,31.2-26.3,36.4-7.7,2.4-15.5,2.9-23.5,3-20.3.2-40.6.1-60.8.3-7.3,0-9.4,2.1-10.2,8.2-.3,2.3.4,2.7,2.3,2.7,1.4,0,2.7,0,4.1,0,87.7-.2,175.3-.5,263-.7,2.2,0,5.4-1.2,6.4.8,1,2.1-1.3,4.6-2.6,6.6-10.4,16.2-25.9,24.8-44,29.6-9.2,2.4-18.6,3.2-28.1,3.4-81.3,1.8-162.6.9-243.9,1.2-5.2,0-6.5-.9-5.4-6.3,2.3-11.3,4.4-22.7,5.6-34.2,2.3-21.2,15.9-29.9,34.2-33.5,8.6-1.7,17.3-1.9,26-1.9,16.8,0,33.6,0,50.4-.2,7.3,0,11.6-3.8,11.4-9.5-.2-5.2-3.8-8.9-9.3-9-5.2-.1-10.4,0-15.6,0-84.4,0-168.8,0-253.2,0-1.7,0-3.5,0-5.6,0Z"/>
        <path class="cls-1" d="M2,127.8c11-13,21.6-25.5,32.1-38,1.8-2.2,4-1.9,6.3-1.9,28.2,0,56.4-.2,84.6-.3,2.7,0,5.4-.3,8.1-.6,3.9-.6,5.6-3.1,5.4-6.9-.1-4-3.3-4.5-6.1-4.6-7.5-.2-15.1,0-22.6,0-14.9,0-29.7.1-44.6.2-7.8,0-15.4-.6-22.7-3.7-10.7-4.5-16.7-12.6-18.9-23.8-.5-2.8-.1-4.1,3.3-4.1,39.2,0,78.4,0,117.6,0,4.7,0,9.2.9,13.7,2.3,14.9,4.5,22.6,14.8,22.6,30.3,0,29.1-18.3,47.8-49.8,50.7-14.3,1.3-28.6.7-42.8.8-28,.2-56,.2-84,.3-.3,0-.7-.2-2-.5Z"/>
        <path class="cls-1" d="M461,82.1c3-4.7,5.2-8.7,6.1-13.3,3-16.8-7.7-29.8-25.5-30.3-12.7-.4-25.5.1-38.2,0-3.6,0-4.1,1.8-4.5,4.5-1.6,11-3.4,22-4.9,33.1-.5,3.8-1.7,5.5-6,5.4-11.2-.3-22.4-.2-33.6.1-3.7.1-4.5-.8-3.9-4.5,3.9-24.3,7.7-48.6,11.3-73,.5-3.4,1.7-4.4,5.2-4.4,28.6.1,57.1-.7,85.7.2,41.5,1.2,68.4,34.9,55.1,78.7-.7,2.3-1.6,3.5-4.3,3.5-13.9-.1-27.7,0-42.4,0Z"/>
        <path class="cls-1" d="M320.1,162.3c.9-6.8,1.9-13,2.6-19.3.3-3.2,1.4-4.5,5-4.4,11.1,0,11.3,0,9.9,10.7-2.3,18.5-4.9,37-7.3,55.5-.4,3.4-1.8,5.5-5.4,4.9-3.8-.6-8.7,2.7-11.5-2.9-.4-.7-2,.6-3,1.2-8.8,4.7-17.6,5-25.6-1.2-8.1-6.3-10.2-14.9-8-24.9,3.3-14.7,15.7-25.2,29.3-24.8,5,.1,9.2,2.3,13.9,5.2ZM303.4,196.7c7.2,0,14-6.5,14-13.4,0-7.1-4-11.4-10.8-11.4-8.6,0-14.7,6.1-14.5,14.5.1,6.5,4.4,10.4,11.3,10.3Z"/>
        <path class="cls-1" d="M228.1,160.6c1.9-18.3,22.1-29.6,38.2-21.7,10,4.9,13.3,15.4,8.7,27.2-2.4,6.3-7,11-11.9,15.4-4.3,3.8-8.7,7.6-12.8,12.7,6,0,12,.2,18,0,3.7-.2,4.6.8,4.1,4.5-1.3,10.8-1.2,10.9-12,10.9-11.6,0-23.2-.2-34.7,0-3.9,0-4.4-1.2-4-4.7.5-4.8,2.3-8.5,6.2-11.6,8.4-6.8,16.3-14.1,24.4-21.2,2.9-2.6,5.5-5.5,6.8-9.2,1.2-3.2,2-6.8-1.4-8.9-3.6-2.3-8.8-2.2-10.4,1.4-3,6.6-8,5.1-12.9,5.3-2.1,0-4.2,0-6.3,0Z"/>
        <path class="cls-1" d="M218.3,195.1c-3.8,13.5-23.3,19.1-35.6,14.6-12.7-4.6-18.3-16.7-14-30.5,4.7-14.7,20-24.2,35.4-21.8,13.7,2.1,22.4,17.5,17.5,30.4-1,2.6-2.6,2.3-4.5,2.3-9.5,0-18.9,0-28.4,0-1.5,0-3.8-1.1-4.5,1.2-.6,2,.9,3.7,2.5,4.8,4.1,2.9,8.8,3.9,13.1,1.3,6-3.7,12.2-1.9,18.5-2.4ZM185.2,178.4c6.1,0,11.4,0,16.7,0,1.5,0,3.8,1.1,4.4-1.2.5-2-1.1-3.5-2.8-4.6-5.3-3.7-13.5-1.4-18.4,5.9Z"/>
        <path class="cls-1" d="M109.5,157.2c14.5,0,24.7,9.6,24.6,23.2-.1,16.6-14.8,30.8-31.9,30.8-13.8,0-24.3-10-24.4-23.1-.1-16.6,14.4-30.8,31.6-30.9ZM93.9,186c0,6.1,4.5,10.3,10.8,10.2,7.2-.1,13.5-6.5,13.6-13.7,0-6.1-4.3-10.4-10.5-10.4-7.7,0-13.9,6.3-13.8,13.9Z"/>
        <path class="cls-1" d="M369.3,157.2c14.1,0,24.2,9.8,24.3,23.2,0,16.2-15.4,31-32.2,30.8-14.1-.2-24.2-10.2-24.1-24,.1-16.2,14.9-30.1,32-30ZM353.3,185.8c0,6.1,4.3,10.4,10.6,10.4,7.4,0,14-6.7,13.8-14.1-.1-5.8-4.4-9.9-10.4-10-7.7-.1-14,6-14,13.7Z"/>
        <path class="cls-1" d="M427.7,157.2c14,0,24.2,9.8,24.2,23.3,0,16.5-15.1,30.9-32.1,30.7-14.1-.2-24.1-10-24.1-23.4,0-16.8,14.5-30.6,32-30.6ZM435.9,183.2c.4-6.3-3.6-10.8-9.8-11.1-7.4-.4-13.9,5.3-14.5,12.6-.5,6.4,3.6,11.2,10.1,11.5,7.2.4,13.8-5.7,14.2-13Z"/>
        <path class="cls-1" d="M6.4,193.4c4.8-.6,8.1-.5,10.6,3.2,1.5,2.2,4.6,1.6,7,.9,1.5-.4,2.9-1.3,3.1-3.1.2-2-1.4-2.6-2.9-3-4.1-1.1-8.2-2.1-12.2-3.4-8.1-2.6-11.3-9.2-8.5-17.3,4.6-13.3,27.1-18.5,37.1-8.7,1.7,1.7,2.9,3.6,3.6,5.8,1.8,6.1.9,7.4-5.6,7.4-4.3,0-8.6,1-11.6-3.9-1.2-2-4.2-1.3-6.4,0-1.2.7-2.2,1.7-1.8,3.3.6,2.2,2.7,2.6,4.5,3.1,3.3.9,6.8,1.6,10.1,2.5,8.5,2.4,11.7,9.1,8.9,17.4-5.1,15.5-30.5,17.3-39.3,8-.3-.3-.5-.6-.7-.9-2.3-3.1-3.9-6.8-2.6-10.2,1.3-3.5,5.3-.2,6.7-1.2Z"/>
        <path class="cls-1" d="M68,142.2q7.7,0,6.6,7.6c-.2,1.5-.1,3.1-.6,4.6-1,3.4.3,4.6,3.6,4.1,3.8-.6,4.1,1.5,3.5,4.4-.4,1.9-.8,3.8-.8,5.7,0,3.5-1.2,5.5-5.1,4.8-3-.5-4,1-4.3,3.8-1.1,9-2.7,17.9-3.4,26.8-.4,4.4-2.1,5.8-6.3,5.9-10.3.4-10.3.5-9.1-9.3,1-7.8,1.9-15.6,3.2-23.4.5-3.1,0-4.4-3.3-3.9-4.3.7-4.9-1.4-4-4.9.4-1.9.8-3.8.8-5.7,0-3.1,1.3-4.6,4.6-4.1,3.3.5,5.1-.6,4.9-4.3,0-1.5.5-3,.7-4.5q1-7.6,8.9-7.6Z"/>
        <path class="cls-1" d="M148.5,158.8c2.6.5,7-2.2,7.4,3.7,0,1.1,1.9-.1,2.7-.8,3.1-2.5,7.2-5.3,10.3-3.3,2.3,1.4-.1,6.3-.3,9.7-.2,4.1-.9,6.9-6.3,7.2-5.3.3-8.6,4.1-9.4,9.4-1,6.4-2.1,12.9-2.7,19.4-.3,4.4-2.2,5.8-6.4,5.7-12.8,0-9.9.4-8.7-9.5,1.4-11.4,3.3-22.8,4.5-34.2.6-5.7,1.9-9.3,8.8-7.3Z"/>
        <path class="cls-1" d="M473.9,164c4.2-3,6.9-5.4,10.8-6,2.3-.3,3.9-.3,3.4,2.7-.6,3.8-1.1,7.6-1.5,11.4-.3,2.4-1.9,2.3-3.7,2.6-7.9,1.3-10.6,4-11.8,11.9-1,6.3-1.9,12.6-2.5,18.9-.3,2.7-.9,4-4.1,4.1-12.5.4-12.4.6-10.5-11.9,1.7-11.6,3.4-23.2,4.7-34.9.4-3.4,1.5-4.8,5-4.3,2.1.3,4.3.2,6.4,0,3.4-.4,5.2.5,3.9,5.4Z"/>
      </g>
    </g>
  </g>
</svg>