<?xml version="1.0" encoding="UTF-8"?>
<svg xmlns="http://www.w3.org/2000/svg" version="1.1" viewBox="0 0 512 200">
  <defs>
    <style>
      .cls-1 {
        fill: #987034;
      }

      .cls-2 {
        fill: #dbd8e7;
      }
    </style>
  </defs>
  <!-- Generator: Adobe Illustrator 28.6.0, SVG Export Plug-In . SVG Version: 1.2.0 Build 709)  -->
  <g>
    <g id="Layer_1">
      <g>
        <path class="cls-1" d="M341.7,34.3c-29-1.4-32.7-4.9-34.2-34.2,0-.3-.3-.3-.6-.3s-.3,0-.6.3c-1.4,29-5.2,32.8-34.2,34.2-.6,0-.6.9,0,.9,29,1.4,32.7,4.9,34.2,34.2,0,.3.3.3.6.3s.3,0,.6-.3c1.4-29,5.2-32.8,34.2-34.2.6,0,.6-.9,0-.9"/>
        <path class="cls-1" d="M269.6,34.3c-29-1.4-32.7-4.9-34.2-34.2,0-.3-.3-.3-.6-.3s-.3,0-.6.3c-1.4,29-5.2,32.8-34.2,34.2-.6,0-.6.9,0,.9,29,1.4,32.7,4.9,34.2,34.2,0,.3.3.3.6.3s.3,0,.6-.3c1.4-29,5.2-32.8,34.2-34.2.6,0,.6-.9,0-.9"/>
        <path class="cls-2" d="M236.6,75.5c-.6,0-.6-.9,0-.9,29-1.4,32.4-5.2,34.2-34.2,0-.3.3-.3.6-.3s.3,0,.6.3c1.4,29,5.2,32.5,34.2,34.2.6,0,.6.9,0,.9h-69.5Z"/>
        <polygon class="cls-2" points=".2 163 .2 165.9 15.3 165.9 15.3 199.3 22.5 199.3 22.5 165.9 37.9 165.9 37.9 163 .2 163"/>
        <path class="cls-2" d="M48.3,173.2h0l-4.9,12.2h10.4l-4.9-12.2h-.6ZM59.6,199.3l-4.9-11.6h-12.5l-5.2,11.6h-4.1l16.2-36.2h1.2l16.2,36.2h-7Z"/>
        <path class="cls-2" d="M126.5,173.2h0l-4.9,12.2h10.4l-4.9-12.2h-.6ZM137.8,199.3l-4.9-11.6h-12.5l-5.2,11.6h-4.1l16.5-36.2h1.2l16.2,36.2h-7.2Z"/>
        <path class="cls-2" d="M112.3,163h3.2c-2,5.8-10.7,29.3-13.3,36.2h-1.7l-11-24.3h0l-10.4,24.3h-2l-13.3-36.2h6.4l9.8,26.7h.3l9.3-23.2h3.2l10.1,22.6h.3l9.3-26.1Z"/>
        <polygon class="cls-2" points="150 163 179.8 163 156.3 196.4 179.8 196.4 179.8 199.3 147.1 199.3 170.2 165.9 150 165.9 150 163"/>
        <path class="cls-2" d="M212.5,163v20.6c0,4.6,0,8.7-2.9,11.3-2,1.7-4.6,2.3-6.7,2.3s-4.1-.3-6.4-1.7c-2.3-1.7-3.8-4.3-3.8-11.3v-21.2h-7v21.4c0,6.7,2,10.1,4.6,12.2,3.8,3.2,8.7,3.2,11.3,3.2s7-.6,10.7-3.2c4.1-3.2,4.6-8.7,4.6-13.9v-19.7h-4.6Z"/>
        <polygon class="cls-2" points="257.4 199.3 257.4 163 253.9 163 253.9 188.2 224.4 163 224.4 199.3 228.2 199.3 228.2 174.3 257.4 199.3"/>
        <path class="cls-2" d="M382.5,163v20.6c0,4.6,0,8.7-2.9,11.3-2,1.7-4.6,2.3-6.7,2.3s-4.1-.3-6.4-1.7c-2.3-1.7-3.8-4.3-3.8-11.3v-21.2h-7v21.4c0,6.7,2,10.1,4.6,12.2,3.8,3.2,8.7,3.2,11.3,3.2s7-.6,10.7-3.2c4.1-3.2,4.6-8.7,4.6-13.9v-19.7h-4.6Z"/>
        <polygon class="cls-2" points="428.6 199.3 428.6 163 425.1 163 425.1 188.2 395.8 163 395.8 199.3 399.6 199.3 399.6 174.3 428.6 199.3"/>
        <path class="cls-2" d="M478.9,199h2.3-2.3"/>
        <path class="cls-2" d="M498.9,199h6.1-6.1"/>
        <path class="cls-2" d="M300.6,195.5c-1.4.3-2.9.3-4.9.3-4.3,0-7.5-1.4-9.8-4.3s-3.2-5.5-3.2-10.7.9-8.1,2.9-10.7c2-2.6,5.2-4.1,9.6-4.1s3.5.3,4.9.6,2.3.9,3.2,1.4c.9.6,1.7,1.2,2.3,2l.6-4.3c-.9-.6-2-.9-3.2-1.4-.9-.3-2-.6-3.5-.9-1.4-.3-2.9-.6-4.3-.6-6.7,0-11.3,1.4-14.5,4.6s-4.6,7.5-4.6,13.3.3,4.1,1.2,6.4c.9,2.3,2,4.3,3.5,6.1,1.7,1.7,3.8,3.2,6.1,4.1,2.3.9,5.2,1.4,8.7,1.4s2.9,0,4.3-.3c1.2-.3,2.3-.3,3.2-.6,1.2-.3,2-.6,2.9-.9l.6-4.1c-.6.6-1.4.9-2.3,1.4-.9.6-2,.9-3.5,1.2"/>
        <path class="cls-2" d="M329.2,163c-2.9,0-5.5.6-7.8,1.4-2.3.9-4.3,2-5.8,3.8-1.4,1.7-2.9,3.8-3.5,6.1-.9,2.3-1.2,3.8-1.2,7s.3,4.6,1.2,7,2,4.3,3.5,6.1,3.5,2.9,5.8,3.8,4.9,1.4,7.8,1.4,5.5-.6,7.8-1.4c2.3-.9,4.3-2.3,5.8-4.1s2.9-3.8,3.5-6.1c.9-2.3,1.2-4.1,1.2-7,0-5.8-1.4-9.3-4.6-12.5-2.9-3.8-7.5-5.5-13.6-5.5M340.5,185.9c-.6,2-1.2,3.8-2,5.2-.9,1.4-2.3,2.6-3.8,3.5-1.4.9-3.5,1.2-5.5,1.2s-3.8-.3-5.2-1.2-2.6-2-3.5-3.5c-.9-1.4-1.4-3.2-2-5.2-.3-2-.6-3.2-.6-5.5s.3-3.5.9-5.5c.6-2,1.2-3.5,2.3-4.9.9-1.4,2.3-2.3,3.8-3.2,1.4-.9,3.2-1.2,5.2-1.2s3.8.3,5.2,1.2,2.6,1.7,3.5,3.2,1.7,2.9,2,4.9c.6,2,.6,2.9.6,5.5-.3,2.6-.6,3.5-.9,5.5"/>
        <path class="cls-2" d="M442.2,193.5c1.7,1.7,3.8,3.2,6.1,4.1s5.2,1.4,8.7,1.4,2.9,0,4.3-.3c1.2-.3,2.3-.3,3.2-.6,1.2-.3,2-.6,2.9-.9l.6-4.1c-.6.6-1.4.9-2.3,1.4-.9.3-2,.6-3.2.9-1.4.3-2.9.3-4.9.3-4.3,0-7.5-1.4-9.8-4.3-2.3-2.9-3.2-6.4-3.2-11.3s.9-7.2,2.9-9.9,5.2-4.1,9.6-4.1,3.5.3,4.9.6,2.3.9,3.2,1.4,1.7,1.2,2.3,2l.6-4.3c-.9-.6-2-.9-3.2-1.4-.9-.3-2-.6-3.5-.9-1.4-.3-2.9-.6-4.3-.6-6.7,0-11.3,1.4-14.5,4.6s-4.6,6.7-4.6,12.2.3,4.9,1.2,7.2c.3,2.6,1.4,4.6,3.2,6.4"/>
        <path class="cls-2" d="M478.9,199h4.3v-35.9h-6.7v35.9h2.3Z"/>
        <path class="cls-2" d="M498.9,199h13.3v-2.9h-14.2v-33h-6.4v35.9h7.2Z"/>
        <rect class="cls-2" x="253.9" y="106.8" width="6.1" height="36.2"/>
        <rect class="cls-2" x="225" y="105.5" width="5.5" height="5.5" transform="translate(-9.8 192.8) rotate(-45)"/>
        <rect class="cls-2" x="217.2" y="105.6" width="5.5" height="5.5" transform="translate(-12.2 187.4) rotate(-45)"/>
        <path class="cls-2" d="M248.4,106.8h-6.1v27.5c0,3.8-2,4.3-4.1,4.3h-7.5c-1.7,0-4.1-.6-4.1-4.9v-15.7h-6.7v15.9c0,4.3-2,4.9-4.1,4.9h-122.2v-20.6h-8.7c-8.1,0-12.7,6.4-12.7,14.2s1.4,11,9.8,11h5.2c-1.2,7.2-8.1,9-8.1,9l2,3.2s11-1.7,12.2-12.2h125.1c2,0,3.5-.6,4.9-1.4,1.2.9,2.9,1.4,4.9,1.4h12.2c4.9,0,7.5-3.2,7.8-8.4h0v-8.1s0-20.3,0-20.3ZM87.4,138.7h-4.6c-1.2,0-4.9,0-4.9-7.2s2.6-9.3,6.7-9.3h2.9v16.5Z"/>
        <path class="cls-2" d="M33.3,118.7h-6.1v19.1c0,4.6,0,7.8-2,10.4-2,2.6-4.6,3.8-7.5,3.8s-6.1-1.4-7.8-3.8c-2-2.6-2.9-6.4-2.9-10.7v-10.4H.5v10.7c0,11.9,6.1,18.3,16.2,18.3s16.5-8.1,16.5-16.8v-20.6Z"/>
        <path class="cls-2" d="M43.7,142.4c0,8.1-8.4,10.1-8.4,10.1l2.6,3.5s11.9-1.7,11.9-15.4v-21.7h-6.1v23.5Z"/>
        <rect class="cls-2" x="59" y="106.8" width="6.1" height="36.2"/>
        <rect class="cls-2" x="44" y="105.6" width="5.5" height="5.5" transform="translate(-62.9 64.7) rotate(-45)"/>
        <rect class="cls-2" x="14.5" y="105.7" width="5.5" height="5.5" transform="translate(-71.7 44.1) rotate(-45.1)"/>
        <path class="cls-2" d="M512.2,119.8c-2.9-.9-4.9-1.4-7.5-1.4-4.3,0-7.8,1.2-10.1,3.8-2.6,2.6-3.8,5.8-3.8,10.1s.6,4.3,1.7,6.4h-41.4c-.9-2-1.7-4.6-2.9-7-1.2-2-2.3-4.1-4.1-6.1-2-2.9-4.9-5.5-8.1-6.7-3.5-1.4-7.8-.6-10.4,2-1.7,1.7-2.3,4.1-2.6,6.4v1.7h5.5c0-2,.3-6.7,2.9-7,3.2-.3,5.2,2.9,6.7,4.9,2,3.2,4.1,6.4,5.8,9.9.3.6.6.9.6,1.4h-76.5c-1.7,0-4.1-.6-4.1-4.9v-15.7h0v-11.6h-6.1v27.5c0,3.8-2,4.3-4.1,4.3h-7.5c-1.7,0-4.1-.6-4.1-4.9v-15.7h-6.7v.6h0v15.9c0,4.3-2,4.9-4.1,4.9h-2c-1.7,0-3.8-.6-4.1-4.3v-15.9h-6.4v15.9c0,3.8-2,4.3-4.1,4.3h-1.7c-1.7,0-4.1-.6-4.1-4.9v-15.7h-6.7v19.1c0,4.6,0,7.8-2,10.4-2,2.6-4.6,3.8-7.5,3.8s-6.1-1.4-7.8-3.8c-2-2.6-2.9-6.4-2.9-10.7v-10.4h-6.1v10.7c0,11.9,6.1,18.3,16.2,18.3s14.5-5.5,15.9-12.5c.6.3,1.4.3,2.3.3h7c1.7,0,3.5-.6,4.6-1.4,1.2.9,2.9,1.4,4.9,1.4h6.7c2,0,3.5-.6,4.9-1.4,1.4.9,2.9,1.4,4.9,1.4h12.2c1.7,0,3.5-.6,4.6-1.4,1.2.9,2.9,1.4,4.6,1.4h134.4c8.4,0,12.7-3.5,12.7-9.9v-13.9ZM507.3,131.4c-.3,3.8-2,7.2-6.1,7.2s-4.9-2.3-4.9-7.2,2.3-8.7,6.7-9h3.2c.9.3,1.2.6,1.2,1.4,0,2.6.3,4.9,0,7.5"/>
        <rect class="cls-2" x="436.7" y="149.2" width="5.5" height="5.5" transform="translate(21.4 355.5) rotate(-45)"/>
      </g>
    </g>
  </g>
</svg>