<?xml version="1.0" encoding="UTF-8"?>
<svg xmlns="http://www.w3.org/2000/svg" version="1.1" viewBox="0 0 512 139">
  <defs>
    <style>
      .cls-1 {
        fill: #ccc9e3;
      }

      .cls-2 {
        fill: #dcd9e8;
      }
    </style>
  </defs>
  <!-- Generator: Adobe Illustrator 28.6.0, SVG Export Plug-In . SVG Version: 1.2.0 Build 709)  -->
  <g>
    <g id="Layer_1">
      <g>
        <path class="cls-1" d="M52,100h-20.5l-1.1-2.4h21.7v2.4h-.1ZM59.2,84.9H25.6v2.2h33.7v-2.2h-.1ZM68.2,72H28.2l-.7,2.2h40.8v-2.2ZM68.2,59.3h-32.7l-1.1,2.5h33.7v-2.5ZM62.7,46.6h-17.7l-1.4,2.4h20.7s-1.5-2.4-1.5-2.4ZM7.1,87.1c-3.9,0-7.1,3.2-7.1,7.1s3.2,7.1,7.1,7.1,7.1-3.2,7.1-7.1-3.2-7.1-7.1-7.1ZM86.4,45.7c-3.9,0-7.1,3.2-7.1,7.1s3.2,7.1,7.1,7.1,7.1-3.2,7.1-7.1-3.2-7.1-7.1-7.1Z"/>
        <path class="cls-2" d="M51.2,0c3.1,7,3.5,14,1.1,21.3-2.4,7.6-6.9,13.9-11.5,20.2-5.2,7.1-11,13.7-15.2,21.5-2.8,5.2-4.9,10.6-4.8,16.8,0,7.1,2.8,13.2,6.6,18.8,1.9,3,4.3,5.6,6.6,8.3-7-4.1-12.7-9.3-16.6-16.5-4.7-8.6-4.3-17.3-.8-26.1,3.2-8.2,8.5-15.1,13.9-21.9,5.9-7.4,12.3-14.4,16.8-22.8,3.3-6.1,4.9-12.6,3.9-19.6ZM39.6,139c-3.1-7-3.5-14-1.1-21.3,2.4-7.6,6.9-13.9,11.5-20.2,5.2-7.1,11-13.7,15.2-21.5,2.8-5.2,4.9-10.6,4.8-16.8,0-7.1-2.8-13.2-6.6-18.8-1.9-3-4.3-5.6-6.6-8.3,7,4.1,12.7,9.3,16.6,16.5,4.7,8.6,4.3,17.3.8,26.1-3.2,8.2-8.5,15.1-13.9,21.9-5.9,7.4-12.3,14.4-16.8,22.8-3.3,6.1-4.9,12.6-3.9,19.6h0ZM114.6,45.1v29.5h5.4v-17.9l7.7,7.8,7.6-7.8v17.9h5.4v-29.5l-13,13-13.1-13ZM157.6,56.9l-7.1-11.3h-6.1l10.5,16.3v12.8h5.4v-12.8l10.4-16.3h-6.2l-7,11.3ZM180.9,50.7h8.6v23.9h5.3v-23.9h8.7v-5.1h-22.6v5.1ZM230.9,55.6c0-5.7-4-9.9-10.5-9.9h-14v28.9h5.4v-9.1h6.7l6.1,9.1h6.9l-7.4-10.3c4-1.2,6.9-4.5,6.9-8.7ZM211.8,60.4v-9.7h8.2c3.9,0,5.6,2.2,5.6,4.9s-1.7,4.8-5.6,4.8h-8.2ZM256.3,61.6c0,5.3-3.4,8.5-7.6,8.5s-7.7-3.2-7.7-8.5v-16h-5.4v17.2c0,6.6,5.2,12.4,13.1,12.4s13-5.7,13-12.4v-17.2h-5.4v16ZM273,53.5c0-1.7,1.7-3.9,6.1-3.9s5.3.9,8,3.5l4-3.6c-3-2.9-6.9-4.4-11.7-4.4s-12.2,3.6-12.2,8.7c0,11.9,18.9,5.6,18.9,12.1s-2.9,4.3-7.1,4.4c-3.4,0-6.5-1.6-8.7-3.9l-4.1,3.6c3.7,3.8,8.5,5.3,12.6,5.3,6.7,0,12.9-3.6,12.9-9.6.1-12.2-18.8-5.6-18.8-12.2ZM294.7,50.7h8.6v23.9h5.4v-23.9h8.6v-5.1h-22.6v5.1ZM330.6,45.1v29.5h5.3v-17.9l7.7,7.8,7.7-7.8v17.9h5.4v-29.5l-13.1,13-13-13ZM361.9,74.6h22.6v-5.1h-17.2v-7.3h12v-5h-12v-6.5h17.2v-5.1h-22.6v29ZM402.9,45.6h-12.4v29h12.4c9.6,0,15.8-6.8,15.8-14.4-.1-7.8-5.9-14.6-15.8-14.6ZM402.9,69.5h-7v-18.8h7c6.3,0,10.3,4.3,10.3,9.4s-4.1,9.4-10.3,9.4ZM423.9,45.6h5.4v28.9h-5.4v-28.9ZM450.6,50.2c3.3,0,6.1,1.5,8,4.2l4.5-3.4c-3.3-4-7.8-5.9-12.5-5.9-8.8,0-15.8,6.6-15.8,15.1s7,15,15.8,15,9.2-1.8,12.5-5.9l-4.4-3.2c-1.8,2.6-4.8,4-8.2,4-5.3,0-10.1-4.4-10.1-10,.1-5.6,4.9-9.9,10.2-9.9ZM477.3,45.6l-12.9,29h5.8l2.3-5.4h12.4l2.3,5.4h5.8l-12.4-28.9h-3.3ZM474.4,64.4l4.3-10.3,4.3,10.3h-8.6ZM512,69.5h-9.8v-23.9h-5.4v29h15.3v-5.1ZM122.9,85.3l-8.3,18.5h3.7l1.4-3.5h8l1.4,3.5h3.8l-8-18.5h-2ZM121,97.4l2.8-6.6,2.8,6.6s-5.5,0-5.5,0ZM148.7,89.2c-1.9,0-3.7.7-4.8,2.1v-1.7h-3.2v19.2h3.2v-6.6c.8,1.2,2.5,2.1,4.6,2.1,4.7,0,7.7-4,7.7-7.6s-2.8-7.6-7.5-7.6ZM148.3,101.4c-2.5,0-4.6-2-4.6-4.6s2.2-4.6,4.6-4.6,4.6,2,4.6,4.6-2.2,4.6-4.6,4.6ZM170.3,91.4c-.9-1.2-2.6-2.1-4.7-2.1-4.7,0-7.7,4-7.7,7.6s2.8,7.6,7.6,7.6,3.8-.8,4.8-2.1h.1v1.7h3.1v-14.3h-3.1c-.1,0-.1,1.7-.1,1.7h0ZM165.9,101.4c-2.6,0-4.6-2-4.6-4.6s2.2-4.6,4.6-4.6,4.5,2,4.5,4.6-2,4.6-4.5,4.6ZM184.8,95.7l-3.2-.5c-1.2-.2-1.9-.6-1.9-1.5s1.3-1.8,2.7-1.8,2.4.3,3.9,1.6l1.7-2.1c-1.9-1.4-3.8-1.9-5.7-1.9-3.6,0-5.7,2.2-5.7,4.7s1.1,3.3,5.2,4.1l1.7.3c1.1.2,1.8.7,1.8,1.6s-1,1.8-2.9,1.8-3.5-.9-4.6-2.1l-2.2,2.1c1.9,1.6,4.1,2.5,6.6,2.5,4.4,0,6.1-2.8,6.1-4.8.3-2.1-.9-3.4-3.6-3.9h0ZM198.8,95.7l-3.2-.5c-1.2-.2-1.9-.6-1.9-1.5s1.3-1.8,2.7-1.8,2.4.3,3.9,1.6l1.7-2.1c-1.9-1.4-3.8-1.9-5.7-1.9-3.6,0-5.7,2.2-5.7,4.7s1.1,3.3,5.2,4.1l1.7.3c1.1.2,1.8.7,1.8,1.6s-1,1.8-2.9,1.8-3.5-.9-4.6-2.1l-2.2,2.1c1.9,1.6,4.1,2.5,6.6,2.5,4.4,0,6.1-2.8,6.1-4.8.2-2.1-1-3.4-3.6-3.9h0ZM205.2,89.6h3.1v14.3h-3.1v-14.3ZM206.7,85c-1,0-1.7.7-1.7,1.7s.7,1.7,1.7,1.7,1.7-.7,1.7-1.7-.7-1.7-1.7-1.7ZM219.2,89.2c-5,0-8,3.7-8,7.6s3,7.6,8,7.6,8-3.7,8-7.6-2.9-7.6-8-7.6ZM219.2,101.4c-2.8,0-4.7-2-4.7-4.6s1.9-4.6,4.7-4.6,4.7,2,4.7,4.6-1.9,4.6-4.7,4.6ZM237.8,89.2c-1.9,0-3.6.8-4.5,2.1v-1.8h-3.2v14.3h3.2v-8c0-2.4,1.5-3.6,3.6-3.6s3.5,1,3.5,3.7v8h3.1v-8.7c0-3.6-2.6-6-5.6-6ZM252.3,103.9h3.5v-8h7.7v-3.2h-7.7v-4.2h11v-3.3h-14.4v18.6ZM275,89.2c-5,0-8,3.7-8,7.6s3,7.6,8,7.6,8-3.7,8-7.6-2.9-7.6-8-7.6ZM275,101.4c-2.8,0-4.7-2-4.7-4.6s1.9-4.6,4.7-4.6,4.7,2,4.7,4.6c.1,2.6-1.9,4.6-4.7,4.6ZM289,91.2v-1.5h-3.1v14.3h3.2v-9.4c0-1.2,1-2.1,2.2-2.1s.8.2,1.1.4l1.1-3c-.4-.3-1-.4-1.7-.4-1.1-.2-2.3.6-2.8,1.7ZM312.3,92.8h-8.6v-7.5h-3.5v18.6h3.5v-8h8.6v8h3.6v-18.6h-3.6v7.5ZM326.1,89.2c-5,0-8,3.7-8,7.6s3,7.6,8,7.6,5-1.3,6.8-3.5l-2.7-1.4c-1.1,1.4-2.6,2.2-4.2,2.2s-4.3-1.5-4.4-3.7h12v-.5c0-5.8-4.5-8.3-7.5-8.3h0ZM321.6,95.3c.5-2.1,2.2-3.3,4.1-3.3s3.7,1.1,4.3,3.3h-8.4ZM348.1,91.4c-.9-1.2-2.6-2.1-4.7-2.1-4.7,0-7.7,4-7.7,7.6s2.8,7.6,7.6,7.6,3.8-.8,4.8-2.1h.1v1.7h3.1v-14.3h-3.1v1.7ZM343.7,101.4c-2.6,0-4.6-2-4.6-4.6s2.2-4.6,4.6-4.6,4.5,2,4.5,4.6-2,4.6-4.5,4.6ZM358.3,98.1v-12.8h-3.1v13.4c0,3,1.5,4.1,4.7,5.6l1.3-2.5-1.6-.9c-.9-.6-1.3-1.1-1.3-2.9h0ZM364.5,85c-1,0-1.7.7-1.7,1.7s.7,1.7,1.7,1.7,1.7-.7,1.7-1.7-.7-1.7-1.7-1.7ZM363,89.6h3.1v14.3h-3.1v-14.3ZM377.8,89.2c-1.9,0-3.6.8-4.5,2.1v-1.8h-3.2v14.3h3.2v-8c0-2.4,1.5-3.6,3.6-3.6s3.5,1,3.5,3.7v8h3.1v-8.7c0-3.6-2.6-6-5.6-6ZM398.2,89.6v1.6c-1-1.3-2.6-2-4.5-2-3.9,0-7.5,2.7-7.5,7.4s3.3,7.3,7.1,7.3,3.7-.7,4.9-2.2v.9c0,2.1-1.6,4.2-4.8,4.2s-2.9-.9-3.5-1.7l-2.6,1.8c1.6,2,4.1,2.9,6.1,2.9,3.9,0,7.6-2.8,7.6-7.5v-12.6s-2.9,0-2.9,0ZM393.9,101c-2.7,0-4.4-1.9-4.4-4.5s1.9-4.4,4.4-4.4,4.3,1.9,4.3,4.5-1.7,4.4-4.3,4.4Z"/>
      </g>
    </g>
  </g>
</svg>