<?xml version="1.0" encoding="UTF-8"?>
<svg xmlns="http://www.w3.org/2000/svg" version="1.1" viewBox="0 0 512 290">
  <defs>
    <style>
      .cls-1 {
        fill: #c3c1d4;
      }

      .cls-2 {
        fill: #aaa8bf;
      }

      .cls-3 {
        fill: #dbd8e8;
      }
    </style>
  </defs>
  <!-- Generator: Adobe Illustrator 28.6.0, SVG Export Plug-In . SVG Version: 1.2.0 Build 709)  -->
  <g>
    <g id="Layer_1">
      <g>
        <g>
          <path class="cls-3" d="M32.3,202.5v9.6h-11.2v33.9h-9.9v-33.9H0v-9.6h32.3Z"/>
          <path class="cls-3" d="M59.5,246l-8.2-14.3h-4.7v14.3h-9.9v-43.5h17.4c4.1,0,7.7,1.5,10.6,4.4,2.9,2.9,4.4,6.4,4.4,10.6s-.7,5.1-2.2,7.4c-1.5,2.3-3.4,4-5.8,5.3l9.3,16h-10.7ZM46.6,211.8v11.2h7.5c1.4,0,2.5-.5,3.5-1.6,1-1.1,1.5-2.4,1.5-4s-.5-2.9-1.5-4c-1-1.1-2.1-1.6-3.5-1.6h-7.5Z"/>
          <path class="cls-3" d="M74.9,202.5h9.9v43.5h-9.9v-43.5Z"/>
          <path class="cls-3" d="M120.7,246l-2.3-6.8h-16.7l-2.2,6.8h-10.9l14.8-43.5h12.7l14.8,43.5h-10.2ZM104.6,229.9h10.5l-5.4-16-5.1,16Z"/>
          <path class="cls-3" d="M158.8,202.5h9.9v43.5h-7.5l-16.8-23.6v23.6h-9.9v-43.5h7.5l16.8,23.6v-23.6Z"/>
          <path class="cls-3" d="M219.3,221.8v3.7c0,6.5-2,11.7-6.1,15.6s-9.2,5.8-15.4,5.8-12.4-2.2-16.8-6.5c-4.5-4.4-6.7-9.7-6.7-16s2.2-11.7,6.6-16.1c4.4-4.4,9.8-6.6,16.2-6.6s7.8.9,11.2,2.7c3.4,1.8,6,4.2,7.9,7.2l-8.5,4.8c-1-1.5-2.4-2.7-4.3-3.7-1.9-1-4-1.4-6.4-1.4-3.7,0-6.7,1.2-9.2,3.7-2.4,2.4-3.6,5.6-3.6,9.4s1.2,6.8,3.7,9.2c2.5,2.4,5.8,3.6,9.9,3.6s9.5-2.2,11.1-6.7h-11.6v-8.7h21.8Z"/>
          <path class="cls-3" d="M234.8,236.4h15.5v9.6h-25.5v-43.5h9.9v33.9Z"/>
          <path class="cls-3" d="M264.7,236.4h17.4v9.6h-27.4v-43.5h27v9.6h-17.1v7.2h15.5v9.4h-15.5v7.7Z"/>
          <path class="cls-3" d="M332.7,202.5v3.1h-13.7v40.4h-3.4v-40.4h-13.7v-3.1h30.7Z"/>
          <path class="cls-3" d="M372.9,240.1c-4.4,4.4-9.7,6.6-15.9,6.6s-11.6-2.2-15.9-6.6c-4.4-4.4-6.5-9.7-6.5-15.9s2.2-11.5,6.5-15.9c4.4-4.4,9.7-6.6,15.9-6.6s11.6,2.2,15.9,6.6c4.4,4.4,6.5,9.7,6.5,15.9s-2.2,11.5-6.5,15.9ZM343.4,237.9c3.7,3.8,8.2,5.6,13.6,5.6s9.9-1.9,13.6-5.6c3.7-3.8,5.6-8.3,5.6-13.6s-1.9-9.9-5.6-13.6c-3.7-3.8-8.2-5.6-13.6-5.6s-9.9,1.9-13.6,5.6c-3.7,3.8-5.6,8.3-5.6,13.6s1.9,9.9,5.6,13.6Z"/>
          <path class="cls-3" d="M395.2,246l-12.6-43.5h3.4l11.4,39.1,12.1-39.1h3.8l12.2,39.2,11.3-39.2h3.4l-12.5,43.5h-4l-12.3-39.4-12.3,39.4h-3.8Z"/>
          <path class="cls-3" d="M450.9,242.9h21.8v3.1h-25.1v-43.5h24.7v3.1h-21.4v16.9h19.9v3.1h-19.9v17.3Z"/>
          <path class="cls-3" d="M508.2,246l-10.5-17.8h-13.7v17.8h-3.3v-43.5h17.2c3.5,0,6.5,1.3,9.1,3.8,2.5,2.5,3.8,5.6,3.8,9.1s-.9,5.6-2.7,7.8c-1.8,2.3-4.1,3.8-6.9,4.5l10.8,18.3h-3.8ZM484,205.6v19.5h13.9c2.7,0,4.9-.9,6.8-2.8,1.9-1.9,2.8-4.2,2.8-6.9s-.9-5-2.8-6.9c-1.9-1.9-4.1-2.9-6.8-2.9h-13.9Z"/>
          <path class="cls-3" d="M78.7,289.6l-2.6-6.7h-13.3l-2.6,6.7h-2.1l10.3-26.5h2.1l10.3,26.5h-2.1ZM63.5,280.9h11.8l-5.9-15.4-5.9,15.4Z"/>
          <path class="cls-3" d="M93,270.2c2.2,0,4,.7,5.4,2.1,1.3,1.4,2,3.2,2,5.5v11.8h-1.9v-11.8c0-1.8-.5-3.2-1.5-4.2-1-1-2.3-1.6-4.1-1.6s-3.5.6-4.8,1.9c-1.2,1.3-1.9,3.2-1.9,5.6v10h-1.9v-19h1.9v3.6c1.4-2.7,3.6-4,6.8-4Z"/>
          <path class="cls-3" d="M134,289.6l-2.6-6.7h-13.3l-2.6,6.7h-2.1l10.3-26.5h2.1l10.3,26.5h-2.1ZM118.9,280.9h11.8l-5.9-15.4-5.9,15.4Z"/>
          <path class="cls-3" d="M156,263h1.9v26.5h-1.9v-4.4c-.8,1.5-1.9,2.7-3.3,3.5-1.4.9-3,1.3-4.8,1.3-2.7,0-5-1-7-2.9-1.9-1.9-2.9-4.3-2.9-7s1-5.1,2.9-7c1.9-1.9,4.2-2.9,7-2.9s3.4.4,4.8,1.3c1.4.9,2.5,2,3.3,3.5v-12ZM142.2,285.8c1.6,1.6,3.5,2.3,5.7,2.3s4.2-.8,5.7-2.3c1.6-1.6,2.3-3.5,2.3-5.7s-.8-4.2-2.3-5.7c-1.6-1.6-3.5-2.3-5.7-2.3s-4.2.8-5.7,2.3c-1.6,1.6-2.3,3.5-2.3,5.7s.8,4.2,2.3,5.7Z"/>
          <path class="cls-3" d="M180.4,263h1.9v26.5h-1.9v-4.4c-.8,1.5-1.9,2.7-3.3,3.5-1.4.9-3,1.3-4.8,1.3-2.7,0-5-1-7-2.9-1.9-1.9-2.9-4.3-2.9-7s1-5.1,2.9-7c1.9-1.9,4.2-2.9,7-2.9s3.4.4,4.8,1.3c1.4.9,2.5,2,3.3,3.5v-12ZM166.7,285.8c1.6,1.6,3.5,2.3,5.7,2.3s4.2-.8,5.7-2.3c1.6-1.6,2.3-3.5,2.3-5.7s-.8-4.2-2.3-5.7c-1.6-1.6-3.5-2.3-5.7-2.3s-4.2.8-5.7,2.3c-1.6,1.6-2.3,3.5-2.3,5.7s.8,4.2,2.3,5.7Z"/>
          <path class="cls-3" d="M190.1,274.3c1.1-2.7,3.2-4,6.3-4v1.8c-1.8,0-3.3.6-4.5,1.7s-1.8,2.9-1.8,5.1v10.5h-1.9v-19h1.9v3.7Z"/>
          <path class="cls-3" d="M207.6,270.2c2.8,0,5,1,6.8,3,1.7,2,2.6,4.3,2.6,7s0,.3,0,.5c0,.2,0,.4,0,.5h-17.2c.2,2.1,1.1,3.8,2.6,5.1,1.5,1.3,3.3,2,5.5,2s2.8-.3,4-.9c1.1-.6,2-1.5,2.6-2.5l1.7,1c-.8,1.3-1.9,2.4-3.3,3.1-1.4.8-3.1,1.2-4.9,1.2-2.9,0-5.3-.9-7.2-2.8-1.9-1.9-2.8-4.2-2.8-7.1s.9-5.2,2.7-7.1c1.8-1.9,4.2-2.8,7.1-2.8ZM207.6,272c-2.1,0-3.9.7-5.4,2-1.4,1.3-2.3,3.1-2.5,5.2h15.2c-.2-2.2-1-4-2.4-5.3-1.4-1.3-3.1-1.9-5-1.9Z"/>
          <path class="cls-3" d="M221.9,275.5c0,.9.4,1.6,1.2,2.2.8.5,1.8.9,2.9,1.2,1.1.3,2.3.6,3.4.9,1.1.3,2.1.8,2.9,1.6.8.8,1.2,1.8,1.2,3.2s-.6,2.9-1.9,3.9c-1.3,1-2.9,1.5-4.9,1.5s-3.4-.4-4.6-1.2c-1.3-.8-2.1-1.8-2.6-3.1l1.6-.9c.4,1,1,1.9,2,2.4,1,.6,2.2.9,3.6.9s2.6-.3,3.5-.9c.9-.6,1.4-1.5,1.4-2.6s-.4-1.7-1.2-2.2c-.8-.6-1.7-1-2.9-1.3-1.1-.3-2.3-.6-3.4-.9-1.1-.3-2.1-.8-2.9-1.6-.8-.8-1.2-1.8-1.2-3s.6-2.8,1.8-3.8c1.2-1,2.7-1.6,4.6-1.6s2.8.3,4,1c1.1.7,2,1.6,2.5,2.8l-1.6.9c-.4-.9-1-1.6-1.9-2.1-.9-.5-1.9-.7-3-.7s-2.4.3-3.2,1c-.9.6-1.3,1.5-1.3,2.6Z"/>
          <path class="cls-3" d="M238.2,275.5c0,.9.4,1.6,1.2,2.2.8.5,1.8.9,2.9,1.2,1.1.3,2.3.6,3.4.9,1.1.3,2.1.8,2.9,1.6.8.8,1.2,1.8,1.2,3.2s-.6,2.9-1.9,3.9c-1.3,1-2.9,1.5-4.9,1.5s-3.4-.4-4.6-1.2c-1.3-.8-2.1-1.8-2.6-3.1l1.6-.9c.4,1,1,1.9,2,2.4,1,.6,2.2.9,3.6.9s2.6-.3,3.5-.9c.9-.6,1.4-1.5,1.4-2.6s-.4-1.7-1.2-2.2c-.8-.6-1.7-1-2.9-1.3-1.1-.3-2.3-.6-3.4-.9-1.1-.3-2.1-.8-2.9-1.6-.8-.8-1.2-1.8-1.2-3s.6-2.8,1.8-3.8c1.2-1,2.7-1.6,4.6-1.6s2.8.3,4,1c1.1.7,2,1.6,2.5,2.8l-1.6.9c-.4-.9-1-1.6-1.9-2.1-.9-.5-1.9-.7-3-.7s-2.4.3-3.2,1c-.9.6-1.3,1.5-1.3,2.6Z"/>
          <path class="cls-3" d="M274,272.5h-5.6v12.3c0,1.1.2,1.9.6,2.4.4.5,1,.8,1.9.8.8,0,1.9,0,3.2,0v1.7c-2.6.4-4.5.2-5.7-.5s-1.9-2.1-1.9-4.2v-12.3h-4.2v-1.9h4.2v-4.7l1.9-.6v5.3h5.6v1.9Z"/>
          <path class="cls-3" d="M286.1,290c-2.8,0-5.1-1-7.1-2.9-1.9-1.9-2.9-4.3-2.9-7s1-5.1,2.9-7,4.3-2.9,7.1-2.9,5.1,1,7,2.9,2.9,4.3,2.9,7-1,5.1-2.9,7c-1.9,1.9-4.3,2.9-7,2.9ZM280.4,285.8c1.6,1.6,3.5,2.3,5.7,2.3s4.1-.8,5.7-2.3c1.5-1.6,2.3-3.5,2.3-5.7s-.8-4.2-2.3-5.7c-1.5-1.6-3.4-2.3-5.7-2.3s-4.2.8-5.7,2.3c-1.6,1.6-2.3,3.5-2.3,5.7s.8,4.2,2.3,5.7Z"/>
          <path class="cls-3" d="M311.1,263h2v26.5h-2v-26.5Z"/>
          <path class="cls-3" d="M343.7,263v26.5h-2v-23.6l-9.8,16.3h-.3l-9.8-16.3v23.6h-2v-26.5h2.5l9.5,15.7,9.5-15.7h2.5Z"/>
          <path class="cls-3" d="M359.3,263c2.4,0,4.3.8,5.9,2.4,1.6,1.6,2.3,3.5,2.3,5.9s-.8,4.3-2.3,5.9c-1.6,1.6-3.5,2.3-5.9,2.3h-7v10.1h-2v-26.5h9ZM359.3,277.6c1.8,0,3.3-.6,4.5-1.8,1.2-1.2,1.8-2.7,1.8-4.5s-.6-3.4-1.8-4.5c-1.2-1.2-2.7-1.8-4.5-1.8h-7v12.6h7Z"/>
          <path class="cls-3" d="M389.3,289.6l-6.4-10.9h-8.4v10.9h-2v-26.5h10.5c2.1,0,4,.8,5.5,2.3,1.5,1.5,2.3,3.4,2.3,5.5s-.5,3.4-1.6,4.8c-1.1,1.4-2.5,2.3-4.2,2.8l6.6,11.1h-2.3ZM374.6,264.9v11.9h8.5c1.6,0,3-.6,4.1-1.7s1.7-2.5,1.7-4.2-.6-3-1.7-4.2-2.5-1.7-4.1-1.7h-8.5Z"/>
          <path class="cls-3" d="M397.8,287.7h13.3v1.9h-15.3v-26.5h15.1v1.9h-13.1v10.3h12.1v1.9h-12.1v10.5Z"/>
          <path class="cls-3" d="M424.1,290c-2.5,0-4.5-.6-6.2-1.7-1.7-1.1-2.9-2.6-3.5-4.6l1.7-1c.5,1.6,1.4,2.9,2.7,3.9s3.1,1.4,5.2,1.4,3.8-.5,4.9-1.5c1.1-1,1.7-2.3,1.7-3.8s-.6-2.6-1.7-3.4c-1.1-.8-2.8-1.6-5.2-2.3-.9-.3-1.5-.5-1.9-.7-.4-.1-1-.3-1.7-.6s-1.3-.5-1.6-.7c-.4-.2-.8-.5-1.3-.9-.5-.4-.9-.8-1.1-1.2-.2-.4-.4-.9-.6-1.4-.2-.5-.3-1.1-.3-1.8,0-2.1.8-3.9,2.3-5.2,1.5-1.3,3.4-2,5.7-2s3.8.5,5.3,1.6c1.5,1,2.5,2.4,3.2,4l-1.7.9c-1.3-3.1-3.5-4.6-6.8-4.6s-3.3.5-4.4,1.4c-1.1,1-1.6,2.2-1.6,3.7s.5,2.5,1.5,3.2c1,.7,2.7,1.4,5,2.2,1.4.5,2.6,1,3.4,1.3.8.3,1.7.8,2.7,1.4.9.6,1.6,1.3,2.1,2.1s.6,1.8.6,2.9c0,2.2-.8,4-2.4,5.3-1.6,1.3-3.7,2-6.3,2Z"/>
          <path class="cls-3" d="M444.9,290c-2.5,0-4.5-.6-6.2-1.7-1.7-1.1-2.9-2.6-3.5-4.6l1.7-1c.5,1.6,1.4,2.9,2.7,3.9s3.1,1.4,5.2,1.4,3.8-.5,4.9-1.5c1.1-1,1.7-2.3,1.7-3.8s-.6-2.6-1.7-3.4c-1.1-.8-2.8-1.6-5.2-2.3-.9-.3-1.5-.5-1.9-.7-.4-.1-1-.3-1.7-.6s-1.3-.5-1.6-.7c-.4-.2-.8-.5-1.3-.9-.5-.4-.9-.8-1.1-1.2-.2-.4-.4-.9-.6-1.4-.2-.5-.3-1.1-.3-1.8,0-2.1.8-3.9,2.3-5.2,1.5-1.3,3.4-2,5.7-2s3.8.5,5.3,1.6c1.5,1,2.5,2.4,3.2,4l-1.7.9c-1.3-3.1-3.5-4.6-6.8-4.6s-3.3.5-4.4,1.4c-1.1,1-1.6,2.2-1.6,3.7s.5,2.5,1.5,3.2c1,.7,2.7,1.4,5,2.2,1.4.5,2.6,1,3.4,1.3.8.3,1.7.8,2.7,1.4.9.6,1.6,1.3,2.1,2.1s.6,1.8.6,2.9c0,2.2-.8,4-2.4,5.3-1.6,1.3-3.7,2-6.3,2Z"/>
        </g>
        <polygon class="cls-2" points="394.5 176.3 118.2 176.3 256.4 136.3 394.5 176.3"/>
        <polygon class="cls-1" points="256.4 0 256.4 136.3 394.5 176.3 256.4 0"/>
        <polygon class="cls-3" points="256.4 0 256.4 136.3 118.2 176.3 256.4 0"/>
      </g>
    </g>
  </g>
</svg>