<?xml version="1.0" encoding="UTF-8"?>
<svg xmlns="http://www.w3.org/2000/svg" version="1.1" viewBox="0 0 345 512">
  <defs>
    <style>
      .cls-1 {
        fill: #dad8e8;
      }
    </style>
  </defs>
  <!-- Generator: Adobe Illustrator 28.6.0, SVG Export Plug-In . SVG Version: 1.2.0 Build 709)  -->
  <g>
    <g id="Layer_1">
      <g id="Layer_1-2" data-name="Layer_1">
        <g>
          <polygon class="cls-1" points="45.2 478.3 21.1 478.3 21.1 467.5 34.5 467.5 34.5 134.4 45.2 134.4 45.2 478.3"/>
          <polygon class="cls-1" points="77.2 465.9 66.4 465.9 66.4 159.2 117.8 159.2 117.8 170 77.2 170 77.2 465.9"/>
          <rect class="cls-1" x="79.4" y="303" width="144.4" height="10.8"/>
          <polygon class="cls-1" points="127.2 486.6 102.6 486.6 102.6 332.8 244.9 332.8 244.9 357.3 234.2 357.3 234.2 343.6 113.4 343.6 113.4 475.9 127.2 475.9 127.2 486.6"/>
          <polygon class="cls-1" points="146.2 511.7 122 511.7 122 501 135.4 501 135.4 345.8 146.2 345.8 146.2 511.7"/>
          <rect class="cls-1" x="168.4" y="362.9" width="10.8" height="133.3"/>
          <polygon class="cls-1" points="228.9 511.7 203.5 511.7 203.5 345.8 214.3 345.8 214.3 501 228.9 501 228.9 511.7"/>
          <polygon class="cls-1" points="344.6 30.3 0 30.3 0 .3 10.8 .3 10.8 19.6 333.8 19.6 333.8 .3 344.6 .3 344.6 30.3"/>
          <rect class="cls-1" x="20.3" y="48.1" width="307" height="10.8"/>
          <rect class="cls-1" x="164.3" y="59.5" width="10.8" height="193.7"/>
          <polygon class="cls-1" points="145.3 268.9 134.5 268.9 134.5 92.1 12.5 92.1 12.5 102 1.7 102 1.7 81.3 145.3 81.3 145.3 268.9"/>
          <polygon class="cls-1" points="204.5 276.4 101.8 276.4 101.8 188.6 132.3 188.6 132.3 199.4 112.5 199.4 112.5 265.7 193.7 265.7 193.7 81.3 345 81.3 345 103.3 334.2 103.3 334.2 92.1 204.5 92.1 204.5 276.4"/>
          <polygon class="cls-1" points="313.5 139.8 206.3 139.8 206.3 129 302.7 129 302.7 112.5 313.5 112.5 313.5 139.8"/>
          <rect class="cls-1" x="225.1" y="159.2" width="63.4" height="10.8"/>
          <polygon class="cls-1" points="311.8 213.6 301 213.6 301 199.4 206.3 199.4 206.3 188.6 311.8 188.6 311.8 213.6"/>
          <polygon class="cls-1" points="244.1 276.4 206.3 276.4 206.3 265.7 233.3 265.7 233.3 253.2 244.1 253.2 244.1 276.4"/>
          <rect class="cls-1" x="21.1" y="129" width="111.1" height="10.8"/>
        </g>
      </g>
    </g>
  </g>
</svg>